<svg width="42" height="58" viewBox="0 0 42 58" fill="none" xmlns="http://www.w3.org/2000/svg">
<path d="M0.530273 43.5666L20.7669 31.6537L41.7468 43.9237L21.5102 55.8367L0.530273 43.5666Z" fill="#D9DDF6"/>
<path d="M21.5099 55.8371L41.7465 43.9242L41.7249 45.2543L21.4883 57.1673L21.5099 55.8371Z" fill="#AABAFD"/>
<path d="M21.5123 55.8367L21.4906 57.1668L0.510742 44.8968L0.532399 43.5667L21.5123 55.8367Z" fill="#B7C5FD"/>
<path d="M20.7764 18.7637L37.1554 9.63257L37.1386 44.4323L21.4085 53.6923L20.7764 18.7637Z" fill="#1B2A4F"/>
<path d="M30.3613 45.381L30.3634 46.1382L35.5571 43.1007L35.555 42.3435L30.3613 45.381Z" fill="#384E85"/>
<path d="M30.3447 40.1448L30.3468 40.902L35.5406 37.8645L35.5384 37.1073L30.3447 40.1448Z" fill="#384E85"/>
<path d="M30.3506 41.4535L30.3527 42.2107L35.5464 39.1732L35.5443 38.416L30.3506 41.4535Z" fill="#384E85"/>
<path d="M30.3535 42.7635L30.3556 43.5207L35.5493 40.4832L35.5472 39.726L30.3535 42.7635Z" fill="#384E85"/>
<path d="M30.3564 44.0727L30.3586 44.8299L35.5523 41.7924L35.5501 41.0352L30.3564 44.0727Z" fill="#384E85"/>
<path d="M30.3604 22.3235L30.3625 23.0807L35.5561 20.0432L35.554 19.286L30.3604 22.3235Z" fill="#384E85"/>
<path d="M30.3438 17.0895L30.3459 17.8468L35.5396 14.8092L35.5375 14.052L30.3438 17.0895Z" fill="#384E85"/>
<path d="M30.3496 18.3978L30.3517 19.155L35.5454 16.1174L35.5433 15.3602L30.3496 18.3978Z" fill="#384E85"/>
<path d="M30.3525 19.7061L30.3547 20.4633L35.5483 17.4258L35.5462 16.6686L30.3525 19.7061Z" fill="#384E85"/>
<path d="M30.3555 21.0152L30.3576 21.7724L35.5513 18.7349L35.5492 17.9777L30.3555 21.0152Z" fill="#384E85"/>
<path d="M21.4271 18.7636L21.4103 53.6922L5.10254 44.1546L5.11937 9.35486L21.4271 18.7636Z" fill="#2E4277"/>
<path d="M20.1042 20.0377L20.7777 19.6412L20.7634 23.3434L20.0898 23.7399L20.1042 20.0377Z" fill="#4466FB"/>
<path d="M5.76562 11.6524L6.43915 11.2559L20.7778 19.6418L20.1043 20.0383L5.76562 11.6524Z" fill="#B7C5FD"/>
<path d="M20.106 20.0391L20.0916 23.7413L5.75293 15.3554L5.76728 11.6532L20.106 20.0391Z" fill="#B7C5FD"/>
<path d="M20.106 20.0391L20.0916 23.7413L5.75293 15.3554L5.76728 11.6532L20.106 20.0391Z" fill="#4466FB"/>
<path d="M7.6986 13.7864L7.69657 14.2922L6.69238 13.7049L6.69441 13.1991L7.6986 13.7864Z" fill="#384E85"/>
<path d="M9.15716 14.6391L9.15514 15.145L8.15332 14.5591L8.15535 14.0532L9.15716 14.6391Z" fill="#384E85"/>
<path d="M18.7914 20.2729L18.7894 20.7787L17.7852 20.1914L17.7872 19.6855L18.7914 20.2729Z" fill="#384E85"/>
<path d="M18.73 21.9405C18.8041 21.8969 18.8039 21.7566 18.7295 21.6271C18.6551 21.4977 18.5346 21.4281 18.4605 21.4716C18.3863 21.5152 18.3865 21.6555 18.4609 21.7849C18.5353 21.9144 18.6558 21.984 18.73 21.9405Z" fill="white"/>
<path d="M17.9487 21.108C18.0551 21.1701 18.1387 21.3187 18.1384 21.4401C18.138 21.5614 18.0538 21.6121 17.9475 21.55C17.8431 21.4891 17.7594 21.3404 17.7598 21.2191C17.7601 21.0977 17.8443 21.0471 17.9487 21.108Z" fill="white"/>
<path d="M17.4409 21.1867C17.5151 21.1431 17.5149 21.0028 17.4405 20.8734C17.366 20.7439 17.2456 20.6743 17.1714 20.7178C17.0972 20.7614 17.0974 20.9017 17.1719 21.0312C17.2463 21.1606 17.3667 21.2303 17.4409 21.1867Z" fill="white"/>
<path d="M16.7954 20.8079C16.8696 20.7643 16.8694 20.624 16.7949 20.4946C16.7205 20.3651 16.6001 20.2955 16.5259 20.3391C16.4517 20.3826 16.4519 20.5229 16.5263 20.6524C16.6008 20.7818 16.7212 20.8515 16.7954 20.8079Z" fill="white"/>
<path d="M6.25686 12.4114L6.17047 12.3611L6.15974 15.0847L6.15918 15.1179L19.6039 22.9809L19.6903 23.0312L19.701 20.3076L19.7016 20.2744L6.25686 12.4114ZM19.5751 22.8299L6.27549 15.0515L6.28565 12.5624L19.5853 20.3408L19.5751 22.8299Z" fill="#4466FB"/>
<path d="M20.1042 25.6035L20.7777 25.207L20.7634 28.9092L20.0898 29.3057L20.1042 25.6035Z" fill="#4466FB"/>
<path d="M5.76562 17.2181L6.43915 16.8217L20.7778 25.2076L20.1043 25.6041L5.76562 17.2181Z" fill="#B7C5FD"/>
<path d="M20.106 25.6049L20.0916 29.3071L5.75293 20.9211L5.76728 17.219L20.106 25.6049Z" fill="#B7C5FD"/>
<path d="M20.106 25.6049L20.0916 29.3071L5.75293 20.9211L5.76728 17.219L20.106 25.6049Z" fill="#4466FB"/>
<path d="M7.6986 19.3513L7.69657 19.8572L6.69238 19.2699L6.69441 18.764L7.6986 19.3513Z" fill="#384E85"/>
<path d="M9.15716 20.2043L9.15514 20.7102L8.15332 20.1242L8.15535 19.6184L9.15716 20.2043Z" fill="#384E85"/>
<path d="M18.7914 25.8388L18.7894 26.3446L17.7852 25.7573L17.7872 25.2515L18.7914 25.8388Z" fill="#384E85"/>
<path d="M18.73 27.5048C18.8041 27.4612 18.8039 27.3209 18.7295 27.1915C18.6551 27.062 18.5346 26.9924 18.4605 27.036C18.3863 27.0795 18.3865 27.2198 18.4609 27.3493C18.5353 27.4787 18.6558 27.5484 18.73 27.5048Z" fill="white"/>
<path d="M17.9487 26.6731C18.0551 26.7351 18.1387 26.8838 18.1384 27.0051C18.138 27.1265 18.0538 27.1771 17.9475 27.1151C17.8431 27.0541 17.7594 26.9055 17.7598 26.7841C17.7601 26.6628 17.8443 26.6121 17.9487 26.6731Z" fill="white"/>
<path d="M17.438 26.7514C17.5121 26.7078 17.5119 26.5675 17.4375 26.4381C17.3631 26.3086 17.2426 26.239 17.1685 26.2825C17.0943 26.3261 17.0945 26.4664 17.1689 26.5959C17.2433 26.7253 17.3638 26.795 17.438 26.7514Z" fill="white"/>
<path d="M16.7954 26.3754C16.8696 26.3318 16.8694 26.1915 16.7949 26.0621C16.7205 25.9326 16.6001 25.863 16.5259 25.9066C16.4517 25.9501 16.4519 26.0904 16.5263 26.2199C16.6008 26.3493 16.7212 26.419 16.7954 26.3754Z" fill="white"/>
<path d="M6.25686 17.9772L6.17047 17.9269L6.15974 20.6505L6.15918 20.6837L19.6039 28.5467L19.6903 28.597L19.701 25.8734L19.7016 25.8402L6.25686 17.9772ZM19.5751 28.3957L6.2755 20.6173L6.28567 18.1282L19.5853 25.9065L19.5751 28.3957Z" fill="#4466FB"/>
<path d="M20.1042 31.1713L20.7777 30.7748L20.7634 34.477L20.0898 34.8735L20.1042 31.1713Z" fill="#4466FB"/>
<path d="M5.76562 22.7852L6.43915 22.3887L20.7778 30.7746L20.1043 31.1711L5.76562 22.7852Z" fill="#B7C5FD"/>
<path d="M20.106 31.1727L20.0916 34.8749L5.75293 26.4889L5.76728 22.7867L20.106 31.1727Z" fill="#B7C5FD"/>
<path d="M20.106 31.1727L20.0916 34.8749L5.75293 26.4889L5.76728 22.7867L20.106 31.1727Z" fill="#4466FB"/>
<path d="M7.6986 24.9192L7.69657 25.425L6.69238 24.8377L6.69441 24.3319L7.6986 24.9192Z" fill="#384E85"/>
<path d="M9.15716 25.7712L9.15514 26.277L8.15332 25.6911L8.15535 25.1853L9.15716 25.7712Z" fill="#384E85"/>
<path d="M18.7914 31.4057L18.7894 31.9115L17.7852 31.3242L17.7872 30.8184L18.7914 31.4057Z" fill="#384E85"/>
<path d="M18.73 33.0717C18.8041 33.0281 18.8039 32.8878 18.7295 32.7584C18.6551 32.6289 18.5346 32.5593 18.4605 32.6029C18.3863 32.6464 18.3865 32.7867 18.4609 32.9162C18.5353 33.0456 18.6558 33.1153 18.73 33.0717Z" fill="white"/>
<path d="M17.9487 32.24C18.0551 32.302 18.1387 32.4507 18.1384 32.572C18.138 32.6934 18.0538 32.7441 17.9475 32.682C17.8431 32.621 17.7594 32.4724 17.7598 32.351C17.7601 32.2297 17.8443 32.179 17.9487 32.24Z" fill="white"/>
<path d="M17.438 32.3183C17.5121 32.2747 17.5119 32.1344 17.4375 32.005C17.3631 31.8755 17.2427 31.8059 17.1685 31.8494C17.0943 31.893 17.0945 32.0333 17.1689 32.1628C17.2433 32.2922 17.3638 32.3618 17.438 32.3183Z" fill="white"/>
<path d="M16.7954 31.9407C16.8696 31.8971 16.8694 31.7568 16.7949 31.6274C16.7205 31.4979 16.6001 31.4283 16.5259 31.4719C16.4517 31.5155 16.4519 31.6557 16.5263 31.7852C16.6008 31.9146 16.7212 31.9843 16.7954 31.9407Z" fill="white"/>
<path d="M6.25686 23.5451L6.17047 23.4948L6.15974 26.2184L6.15918 26.2516L19.6039 34.1145L19.6903 34.1649L19.701 31.4413L19.7016 31.4081L6.25686 23.5451ZM19.5751 33.9636L6.2755 26.1852L6.28567 23.6961L19.5853 31.4744L19.5751 33.9636Z" fill="#4466FB"/>
<path d="M20.1042 36.7363L20.7777 36.3398L20.7634 40.042L20.0898 40.4385L20.1042 36.7363Z" fill="#4466FB"/>
<path d="M5.76562 28.351L6.43915 27.9545L20.7778 36.3404L20.1043 36.7369L5.76562 28.351Z" fill="#B7C5FD"/>
<path d="M20.106 36.7362L20.0916 40.4383L5.75293 32.0524L5.76728 28.3502L20.106 36.7362Z" fill="#B7C5FD"/>
<path d="M20.106 36.7362L20.0916 40.4383L5.75293 32.0524L5.76728 28.3502L20.106 36.7362Z" fill="#4466FB"/>
<path d="M7.6986 30.4842L7.69657 30.99L6.69238 30.4027L6.69441 29.8969L7.6986 30.4842Z" fill="#384E85"/>
<path d="M9.15716 31.3371L9.15514 31.843L8.15332 31.2571L8.15535 30.7512L9.15716 31.3371Z" fill="#384E85"/>
<path d="M18.7914 36.9707L18.7894 37.4766L17.7852 36.8892L17.7872 36.3834L18.7914 36.9707Z" fill="#384E85"/>
<path d="M18.73 38.6376C18.8041 38.594 18.8039 38.4537 18.7295 38.3243C18.6551 38.1948 18.5346 38.1252 18.4605 38.1688C18.3863 38.2124 18.3865 38.3526 18.4609 38.4821C18.5353 38.6116 18.6558 38.6812 18.73 38.6376Z" fill="white"/>
<path d="M17.9487 37.8059C18.0551 37.868 18.1387 38.0166 18.1384 38.1379C18.138 38.2593 18.0538 38.31 17.9475 38.2479C17.8431 38.1869 17.7594 38.0383 17.7598 37.917C17.7601 37.7956 17.8443 37.7449 17.9487 37.8059Z" fill="white"/>
<path d="M17.438 37.8848C17.5121 37.8412 17.5119 37.7009 17.4375 37.5715C17.3631 37.442 17.2427 37.3724 17.1685 37.416C17.0943 37.4595 17.0945 37.5998 17.1689 37.7293C17.2433 37.8588 17.3638 37.9284 17.438 37.8848Z" fill="white"/>
<path d="M16.7954 37.5082C16.8696 37.4646 16.8694 37.3244 16.7949 37.1949C16.7205 37.0654 16.6001 36.9958 16.5259 37.0394C16.4517 37.083 16.4519 37.2232 16.5263 37.3527C16.6008 37.4822 16.7212 37.5518 16.7954 37.5082Z" fill="white"/>
<path d="M6.25686 29.1093L6.17047 29.059L6.15974 31.7826L6.15918 31.8158L19.6039 39.6788L19.6903 39.7291L19.701 37.0055L19.7016 36.9723L6.25686 29.1093ZM19.5751 39.5278L6.2755 31.7494L6.28567 29.2603L19.5853 37.0386L19.5751 39.5278Z" fill="#4466FB"/>
<path d="M20.1042 42.3012L20.7777 41.9047L20.7634 45.6068L20.0898 46.0033L20.1042 42.3012Z" fill="#4466FB"/>
<path d="M5.76562 33.9158L6.43915 33.5193L20.7778 41.9052L20.1043 42.3017L5.76562 33.9158Z" fill="#B7C5FD"/>
<path d="M20.106 42.3026L20.0916 46.0048L5.75293 37.6188L5.76728 33.9166L20.106 42.3026Z" fill="#B7C5FD"/>
<path d="M20.106 42.3026L20.0916 46.0048L5.75293 37.6188L5.76728 33.9166L20.106 42.3026Z" fill="#386DF4"/>
<path d="M7.6986 36.049L7.69657 36.5548L6.69238 35.9675L6.69441 35.4617L7.6986 36.049Z" fill="#384E85"/>
<path d="M9.15716 36.9005L9.15514 37.4063L8.15332 36.8204L8.15535 36.3146L9.15716 36.9005Z" fill="#384E85"/>
<path d="M18.7914 42.5358L18.7894 43.0416L17.7852 42.4543L17.7872 41.9485L18.7914 42.5358Z" fill="#384E85"/>
<path d="M18.73 44.2028C18.8041 44.1592 18.8039 44.0189 18.7295 43.8895C18.6551 43.76 18.5346 43.6904 18.4605 43.734C18.3863 43.7775 18.3865 43.9178 18.4609 44.0473C18.5353 44.1767 18.6558 44.2464 18.73 44.2028Z" fill="white"/>
<path d="M17.9487 43.3693C18.0551 43.4313 18.1387 43.58 18.1384 43.7013C18.138 43.8226 18.0538 43.8733 17.9475 43.8113C17.8431 43.7503 17.7594 43.6016 17.7598 43.4803C17.7601 43.359 17.8443 43.3083 17.9487 43.3693Z" fill="white"/>
<path d="M17.438 43.4486C17.5121 43.4051 17.5119 43.2648 17.4375 43.1353C17.3631 43.0059 17.2426 42.9362 17.1685 42.9798C17.0943 43.0234 17.0945 43.1637 17.1689 43.2931C17.2433 43.4226 17.3638 43.4922 17.438 43.4486Z" fill="white"/>
<path d="M16.7954 43.0704C16.8696 43.0269 16.8694 42.8866 16.7949 42.7571C16.7205 42.6277 16.6001 42.5581 16.5259 42.6016C16.4517 42.6452 16.4519 42.7855 16.5263 42.9149C16.6008 43.0444 16.7212 43.114 16.7954 43.0704Z" fill="white"/>
<path d="M6.25686 34.6757L6.17047 34.6254L6.15974 37.349L6.15918 37.3822L19.6039 45.2452L19.6903 45.2955L19.701 42.5719L19.7016 42.5387L6.25686 34.6757ZM19.5751 45.0942L6.2755 37.3158L6.28567 34.8267L19.5853 42.6051L19.5751 45.0942Z" fill="#4466FB"/>
<path d="M19.2479 46.5695V48.8697L19.2374 50.9996L18.3018 50.4458V48.3266L18.3123 46.0157L19.2479 46.5695Z" fill="#1B2A4F"/>
<path d="M8.57665 40.3193L9.51227 40.8731L9.50176 43.184V45.3031L8.55566 44.7494L8.56618 42.6302L8.57665 40.3193Z" fill="#1B2A4F"/>
<path d="M10.9626 41.7245L11.4567 42.012L11.4462 44.3122V46.442L10.952 46.1546L10.5 45.8883L10.5105 43.7691L10.521 41.4583L10.9626 41.7245Z" fill="#1B2A4F"/>
<path d="M14.4099 43.7369L15.3561 44.2907L15.3455 46.6016V48.7208L14.3994 48.167V46.0478L14.4099 43.7369Z" fill="#1B2A4F"/>
<path d="M16.8009 45.1323L17.3055 45.4304V47.7307L17.295 49.8605L16.7904 49.5623L16.3594 49.3067V47.1875L16.3699 44.8767L16.8009 45.1323Z" fill="#1B2A4F"/>
<path d="M12.4676 42.5972L13.4032 43.1509V45.4511L13.3927 47.581L12.457 47.0272V44.908L12.4676 42.5972Z" fill="#1B2A4F"/>
<path d="M6.61989 39.1895L7.56607 39.7326L7.55556 42.0434V44.1626L6.60938 43.6195L6.61989 41.4897V39.1895Z" fill="#1B2A4F"/>
<path d="M28.9581 44.8087C28.9496 44.8173 28.2032 45.9515 28.517 48.2886C29.1701 53.2118 27.2532 57.379 21.4855 55.5575L21.2565 55.4888L21.0274 55.2911C15.2682 50.3678 13.3852 43.9753 14.0637 39.8339C14.3861 37.8577 13.6481 35.873 13.6481 35.8558L13.1816 34.6443L16.32 33.871L16.8374 34.4037C17.2191 34.7989 17.6177 35.1168 18.0164 35.3574C19.4837 36.2081 20.6458 35.7785 20.6543 35.7785L21.3159 35.5292L21.969 36.5517C21.9774 36.5603 23.1395 38.3475 24.5984 39.1981C24.997 39.4387 25.3957 39.5847 25.7858 39.6363L26.2948 39.705L29.4246 44.1472L28.9581 44.8087Z" fill="#B7C5FD"/>
<path d="M30.7778 43.3488L27.6508 38.9064L27.1368 38.8383C26.7574 38.7896 26.3539 38.6388 25.9504 38.4052C24.495 37.5489 23.3374 35.768 23.3277 35.7583L22.6697 34.7316L22.0116 34.9846L21.9972 34.9895C21.8531 35.0332 20.7436 35.3593 19.3746 34.5564C18.9711 34.3229 18.5725 34.0018 18.1882 33.6076L17.6742 33.0724L14.5377 33.8509L13.1934 34.6429L16.3216 33.872L16.839 34.4047C17.2207 34.8 17.6194 35.1179 18.018 35.3585C19.4854 36.2091 20.6474 35.7795 20.6559 35.7795L21.3175 35.5303L21.9706 36.5528C21.9791 36.5614 23.1411 38.3485 24.6 39.1992C24.9987 39.4397 25.3973 39.5858 25.7875 39.6374L26.2964 39.7061L29.4263 44.1482L28.9597 44.8098C28.9513 44.8184 28.2049 45.9525 28.5187 48.2896C28.9261 51.3608 28.3327 54.1369 26.429 55.3494L27.67 54.6227C29.6634 53.4453 30.2878 50.6231 29.8699 47.4896C29.5625 45.1541 30.307 44.0203 30.3118 44.0106L30.7778 43.3488Z" fill="#D9DDF6"/>
<path d="M21.3102 37.0735C21.3806 37.1846 22.7195 39.2941 24.5956 40.3913C25.0872 40.6788 25.6109 40.8892 26.1496 40.9623L28.0742 43.6969C28.0268 43.7634 27.1274 45.0275 27.5095 47.8968C28.0359 51.8661 26.6698 55.9692 21.262 54.2654C15.8625 49.6486 14.5237 43.9635 15.0706 40.622C15.4675 38.2082 14.5781 35.8979 14.5312 35.7763L16.4647 35.2981C17.0029 35.855 17.5262 36.2568 18.0181 36.5445C19.8947 37.642 21.2394 37.102 21.3102 37.0735Z" fill="#3955D1"/>
<path d="M23.1107 45.36C23.5243 45.6018 23.8566 46.1811 23.8553 46.6624L23.8452 50.2646C23.8439 50.7381 23.5094 50.9313 23.0958 50.6894L19.0942 48.3491C18.6807 48.1072 18.3483 47.524 18.3496 47.0505L18.3597 43.4483C18.361 42.967 18.6956 42.7778 19.1091 43.0196L23.1107 45.36ZM21.3518 47.2628C21.5656 47.275 21.713 47.1163 21.7138 46.8291C21.7149 46.4331 21.4423 45.9588 21.1055 45.7618C20.7687 45.5648 20.4944 45.7193 20.4933 46.1153C20.4925 46.4025 20.6385 46.7328 20.8516 46.9702L20.8487 48.0222L21.3489 48.3147L21.3518 47.2628Z" fill="white"/>
<path d="M21.1287 40.8459C21.1459 40.856 21.163 40.8662 21.1802 40.8768C22.2439 41.5339 23.1079 43.12 23.1043 44.4049L23.1016 45.3558L22.4514 44.9755L22.454 44.0245C22.4565 43.1473 21.875 42.0685 21.1547 41.62C21.1423 41.6124 21.1299 41.6049 21.1175 41.5976C20.7674 41.3929 20.4318 41.3549 20.1798 41.4892C19.9155 41.634 19.771 41.9499 19.7698 42.373L19.7669 43.4055L19.1133 43.0233L19.1162 41.9908C19.1179 41.3619 19.333 40.8967 19.7278 40.6805C20.1067 40.4768 20.607 40.5408 21.1287 40.8459Z" fill="white"/>
<path d="M5.12012 9.35545L20.8501 0.095459L37.1578 9.63302L21.4279 18.893L5.12012 9.35545Z" fill="#384E85"/>
<path d="M32.1522 8.89177C32.7198 9.22371 32.7224 9.76161 32.1585 10.0935L22.1984 15.9569C21.6345 16.2889 20.7178 16.2891 20.1502 15.9571L10.1249 10.0939C9.55734 9.76193 9.55435 9.2238 10.1182 8.89186L20.0784 3.0285C20.6422 2.69656 21.5594 2.69656 22.1269 3.02849L32.1522 8.89177Z" fill="#1B2A4F"/>
</svg>
