<svg width="67" height="68" viewBox="0 0 67 68" fill="none" xmlns="http://www.w3.org/2000/svg">
<path d="M20.6033 14.8224L32.3352 8.62042L32.3208 37.2742L20.5889 44.092L20.6033 14.8224Z" fill="#1B2A4F"/>
<path d="M9.16699 8.83601L20.8989 2.01819L32.3341 8.6203L20.6022 15.4381L9.16699 8.83601Z" fill="#384E85"/>
<path d="M20.603 15.4381L20.5885 44.0919L9.15332 37.4898L9.16778 8.836L20.603 15.4381Z" fill="#2E4277"/>
<path d="M10.5487 10.432L9.85823 10.0334L9.84473 37.0905L19.8975 42.8947L19.8982 42.0313L10.5359 36.6257L10.5487 10.432Z" fill="#384E85"/>
<path d="M10.549 10.4321L10.5361 36.6257L19.8984 42.0313L19.9119 15.837L10.549 10.4321Z" fill="#1B2A4F"/>
<path d="M19.2047 16.8161L19.195 19.9208L11.4824 15.4679L11.4922 12.3632L19.2047 16.8161Z" fill="#2E4277"/>
<path d="M13.355 14.353L13.6342 14.191L13.6239 16.1883L13.3447 16.3502L13.355 14.353Z" fill="#3955D1"/>
<path d="M12.8672 14.0707L13.1458 13.9088L13.6345 14.1909L13.3558 14.3528L12.8672 14.0707Z" fill="#6BB5FB"/>
<path d="M13.3553 14.3529L13.345 16.3502L12.8564 16.0681L12.8667 14.0708L13.3553 14.3529Z" fill="#4466FB"/>
<path d="M14.352 14.9285L14.6312 14.7666L14.621 16.7639L14.3418 16.9258L14.352 14.9285Z" fill="#3955D1"/>
<path d="M13.8643 14.6463L14.1429 14.4844L14.6315 14.7665L14.3529 14.9284L13.8643 14.6463Z" fill="#6BB5FB"/>
<path d="M14.3523 14.9285L14.3421 16.9257L13.8535 16.6436L13.8637 14.6464L14.3523 14.9285Z" fill="#4466FB"/>
<path d="M15.3491 15.5044L15.6283 15.3424L15.6181 17.3397L15.3389 17.5016L15.3491 15.5044Z" fill="#3955D1"/>
<path d="M14.8613 15.2221L15.14 15.0602L15.6286 15.3423L15.3499 15.5042L14.8613 15.2221Z" fill="#6BB5FB"/>
<path d="M15.3494 15.5043L15.3392 17.5015L14.8506 17.2194L14.8608 15.2222L15.3494 15.5043Z" fill="#4466FB"/>
<path d="M16.3462 16.0799L16.6254 15.918L16.6151 17.9152L16.3359 18.0772L16.3462 16.0799Z" fill="#3955D1"/>
<path d="M15.8584 15.7977L16.1371 15.6357L16.6257 15.9178L16.347 16.0798L15.8584 15.7977Z" fill="#6BB5FB"/>
<path d="M16.3465 16.0798L16.3363 18.0771L15.8477 17.795L15.8579 15.7977L16.3465 16.0798Z" fill="#4466FB"/>
<path d="M17.3423 16.6553L17.6215 16.4934L17.6112 18.4907L17.332 18.6526L17.3423 16.6553Z" fill="#3955D1"/>
<path d="M16.8545 16.3731L17.1332 16.2112L17.6218 16.4933L17.3431 16.6552L16.8545 16.3731Z" fill="#6BB5FB"/>
<path d="M17.3426 16.6553L17.3324 18.6525L16.8438 18.3704L16.854 16.3732L17.3426 16.6553Z" fill="#4466FB"/>
<path d="M18.3393 17.2309L18.6186 17.069L18.6083 19.0662L18.3291 19.2282L18.3393 17.2309Z" fill="#3955D1"/>
<path d="M17.8516 16.9487L18.1302 16.7867L18.6188 17.0688L18.3402 17.2308L17.8516 16.9487Z" fill="#6BB5FB"/>
<path d="M18.3396 17.2308L18.3294 19.2281L17.8408 18.946L17.851 16.9487L18.3396 17.2308Z" fill="#4466FB"/>
<path d="M12.3589 13.7775L12.6381 13.6156L12.6278 15.6129L12.3486 15.7748L12.3589 13.7775Z" fill="#3955D1"/>
<path d="M11.8711 13.4953L12.1498 13.3334L12.6384 13.6155L12.3597 13.7774L11.8711 13.4953Z" fill="#6BB5FB"/>
<path d="M12.3592 13.7775L12.349 15.7747L11.8604 15.4926L11.8706 13.4954L12.3592 13.7775Z" fill="#4466FB"/>
<path d="M19.2047 20.9464L19.195 24.0512L11.4824 19.5983L11.4922 16.4936L19.2047 20.9464Z" fill="#2E4277"/>
<path d="M13.355 18.4834L13.6342 18.3214L13.6239 20.3187L13.3447 20.4806L13.355 18.4834Z" fill="#3955D1"/>
<path d="M12.8672 18.2011L13.1458 18.0392L13.6345 18.3213L13.3558 18.4832L12.8672 18.2011Z" fill="#6BB5FB"/>
<path d="M13.3553 18.4833L13.345 20.4805L12.8564 20.1984L12.8667 18.2012L13.3553 18.4833Z" fill="#4466FB"/>
<path d="M14.352 19.0589L14.6312 18.897L14.621 20.8942L14.3418 21.0562L14.352 19.0589Z" fill="#3955D1"/>
<path d="M13.8643 18.7767L14.1429 18.6147L14.6315 18.8968L14.3529 19.0588L13.8643 18.7767Z" fill="#6BB5FB"/>
<path d="M14.3523 19.0588L14.3421 21.0561L13.8535 20.774L13.8637 18.7767L14.3523 19.0588Z" fill="#4466FB"/>
<path d="M15.3491 19.6347L15.6283 19.4728L15.6181 21.47L15.3389 21.632L15.3491 19.6347Z" fill="#3955D1"/>
<path d="M14.8613 19.3525L15.14 19.1906L15.6286 19.4726L15.3499 19.6346L14.8613 19.3525Z" fill="#6BB5FB"/>
<path d="M15.3494 19.6346L15.3392 21.6319L14.8506 21.3498L14.8608 19.3525L15.3494 19.6346Z" fill="#4466FB"/>
<path d="M16.3462 20.2103L16.6254 20.0483L16.6151 22.0456L16.3359 22.2075L16.3462 20.2103Z" fill="#3955D1"/>
<path d="M15.8584 19.9281L16.1371 19.7661L16.6257 20.0482L16.347 20.2102L15.8584 19.9281Z" fill="#6BB5FB"/>
<path d="M16.3465 20.2102L16.3363 22.2074L15.8477 21.9254L15.8579 19.9281L16.3465 20.2102Z" fill="#4466FB"/>
<path d="M17.3423 20.7858L17.6215 20.6238L17.6112 22.6211L17.332 22.783L17.3423 20.7858Z" fill="#3955D1"/>
<path d="M16.8545 20.5035L17.1332 20.3416L17.6218 20.6237L17.3431 20.7856L16.8545 20.5035Z" fill="#6BB5FB"/>
<path d="M17.3426 20.7857L17.3324 22.783L16.8438 22.5009L16.854 20.5036L17.3426 20.7857Z" fill="#4466FB"/>
<path d="M18.3393 21.3613L18.6186 21.1993L18.6083 23.1966L18.3291 23.3585L18.3393 21.3613Z" fill="#3955D1"/>
<path d="M17.8516 21.0791L18.1302 20.9171L18.6188 21.1992L18.3402 21.3611L17.8516 21.0791Z" fill="#6BB5FB"/>
<path d="M18.3396 21.3612L18.3294 23.3585L17.8408 23.0764L17.851 21.0791L18.3396 21.3612Z" fill="#4466FB"/>
<path d="M12.3589 17.9079L12.6381 17.746L12.6278 19.7432L12.3486 19.9052L12.3589 17.9079Z" fill="#3955D1"/>
<path d="M11.8711 17.6257L12.1498 17.4637L12.6384 17.7458L12.3597 17.9078L11.8711 17.6257Z" fill="#6BB5FB"/>
<path d="M12.3592 17.9078L12.349 19.9051L11.8604 19.623L11.8706 17.6257L12.3592 17.9078Z" fill="#4466FB"/>
<path d="M19.2047 25.0764L19.195 28.1811L11.4824 23.7282L11.4922 20.6235L19.2047 25.0764Z" fill="#2E4277"/>
<path d="M13.355 22.6133L13.6342 22.4514L13.6239 24.4486L13.3447 24.6106L13.355 22.6133Z" fill="#3955D1"/>
<path d="M12.8672 22.3311L13.1458 22.1691L13.6345 22.4512L13.3558 22.6132L12.8672 22.3311Z" fill="#6BB5FB"/>
<path d="M13.3553 22.6132L13.345 24.6105L12.8564 24.3284L12.8667 22.3311L13.3553 22.6132Z" fill="#4466FB"/>
<path d="M14.352 23.1889L14.6312 23.0269L14.621 25.0242L14.3418 25.1861L14.352 23.1889Z" fill="#3955D1"/>
<path d="M13.8643 22.9066L14.1429 22.7447L14.6315 23.0268L14.3529 23.1887L13.8643 22.9066Z" fill="#6BB5FB"/>
<path d="M14.3523 23.1888L14.3421 25.186L13.8535 24.9039L13.8637 22.9067L14.3523 23.1888Z" fill="#4466FB"/>
<path d="M15.3491 23.7647L15.6283 23.6027L15.6181 25.6L15.3389 25.7619L15.3491 23.7647Z" fill="#3955D1"/>
<path d="M14.8613 23.4824L15.14 23.3205L15.6286 23.6026L15.3499 23.7645L14.8613 23.4824Z" fill="#6BB5FB"/>
<path d="M15.3494 23.7646L15.3392 25.7618L14.8506 25.4797L14.8608 23.4825L15.3494 23.7646Z" fill="#4466FB"/>
<path d="M16.3462 24.3402L16.6254 24.1783L16.6151 26.1755L16.3359 26.3375L16.3462 24.3402Z" fill="#3955D1"/>
<path d="M15.8584 24.058L16.1371 23.8961L16.6257 24.1781L16.347 24.3401L15.8584 24.058Z" fill="#6BB5FB"/>
<path d="M16.3465 24.3401L16.3363 26.3374L15.8477 26.0553L15.8579 24.058L16.3465 24.3401Z" fill="#4466FB"/>
<path d="M17.3423 24.9157L17.6215 24.7537L17.6112 26.751L17.332 26.9129L17.3423 24.9157Z" fill="#3955D1"/>
<path d="M16.8545 24.6334L17.1332 24.4715L17.6218 24.7536L17.3431 24.9155L16.8545 24.6334Z" fill="#6BB5FB"/>
<path d="M17.3426 24.9156L17.3324 26.9128L16.8438 26.6307L16.854 24.6335L17.3426 24.9156Z" fill="#4466FB"/>
<path d="M18.3393 25.4912L18.6186 25.3293L18.6083 27.3266L18.3291 27.4885L18.3393 25.4912Z" fill="#3955D1"/>
<path d="M17.8516 25.209L18.1302 25.0471L18.6188 25.3291L18.3402 25.4911L17.8516 25.209Z" fill="#6BB5FB"/>
<path d="M18.3396 25.4911L18.3294 27.4884L17.8408 27.2063L17.851 25.209L18.3396 25.4911Z" fill="#4466FB"/>
<path d="M12.3589 22.0379L12.6381 21.8759L12.6278 23.8732L12.3486 24.0351L12.3589 22.0379Z" fill="#3955D1"/>
<path d="M11.8711 21.7556L12.1498 21.5937L12.6384 21.8758L12.3597 22.0377L11.8711 21.7556Z" fill="#6BB5FB"/>
<path d="M12.3592 22.0378L12.349 24.035L11.8604 23.7529L11.8706 21.7557L12.3592 22.0378Z" fill="#4466FB"/>
<path d="M19.2047 29.2066L19.195 32.3114L11.4824 27.8585L11.4922 24.7538L19.2047 29.2066Z" fill="#2E4277"/>
<path d="M13.355 26.7436L13.6342 26.5816L13.6239 28.5789L13.3447 28.7408L13.355 26.7436Z" fill="#3955D1"/>
<path d="M12.8672 26.4613L13.1458 26.2994L13.6345 26.5815L13.3558 26.7434L12.8672 26.4613Z" fill="#6BB5FB"/>
<path d="M13.3553 26.7435L13.345 28.7407L12.8564 28.4586L12.8667 26.4614L13.3553 26.7435Z" fill="#4466FB"/>
<path d="M14.352 27.3191L14.6312 27.1572L14.621 29.1544L14.3418 29.3164L14.352 27.3191Z" fill="#3955D1"/>
<path d="M13.8643 27.0369L14.1429 26.8749L14.6315 27.157L14.3529 27.319L13.8643 27.0369Z" fill="#6BB5FB"/>
<path d="M14.3523 27.319L14.3421 29.3163L13.8535 29.0342L13.8637 27.0369L14.3523 27.319Z" fill="#4466FB"/>
<path d="M15.3491 27.8949L15.6283 27.733L15.6181 29.7302L15.3389 29.8922L15.3491 27.8949Z" fill="#3955D1"/>
<path d="M14.8613 27.6127L15.14 27.4507L15.6286 27.7328L15.3499 27.8948L14.8613 27.6127Z" fill="#6BB5FB"/>
<path d="M15.3494 27.8948L15.3392 29.8921L14.8506 29.61L14.8608 27.6127L15.3494 27.8948Z" fill="#4466FB"/>
<path d="M16.3462 28.4705L16.6254 28.3085L16.6151 30.3058L16.3359 30.4677L16.3462 28.4705Z" fill="#3955D1"/>
<path d="M15.8584 28.1882L16.1371 28.0263L16.6257 28.3084L16.347 28.4703L15.8584 28.1882Z" fill="#6BB5FB"/>
<path d="M16.3465 28.4704L16.3363 30.4677L15.8477 30.1856L15.8579 28.1883L16.3465 28.4704Z" fill="#4466FB"/>
<path d="M17.3423 29.0459L17.6215 28.884L17.6112 30.8812L17.332 31.0432L17.3423 29.0459Z" fill="#3955D1"/>
<path d="M16.8545 28.7637L17.1332 28.6017L17.6218 28.8838L17.3431 29.0458L16.8545 28.7637Z" fill="#6BB5FB"/>
<path d="M17.3426 29.0458L17.3324 31.0431L16.8438 30.761L16.854 28.7637L17.3426 29.0458Z" fill="#4466FB"/>
<path d="M18.3393 29.6215L18.6186 29.4595L18.6083 31.4568L18.3291 31.6187L18.3393 29.6215Z" fill="#3955D1"/>
<path d="M17.8516 29.3393L18.1302 29.1773L18.6188 29.4594L18.3402 29.6213L17.8516 29.3393Z" fill="#6BB5FB"/>
<path d="M18.3396 29.6214L18.3294 31.6186L17.8408 31.3365L17.851 29.3393L18.3396 29.6214Z" fill="#4466FB"/>
<path d="M12.3589 26.1681L12.6381 26.0062L12.6278 28.0034L12.3486 28.1654L12.3589 26.1681Z" fill="#3955D1"/>
<path d="M11.8711 25.8859L12.1498 25.7239L12.6384 26.006L12.3597 26.168L11.8711 25.8859Z" fill="#6BB5FB"/>
<path d="M12.3592 26.168L12.349 28.1653L11.8604 27.8832L11.8706 25.8859L12.3592 26.168Z" fill="#4466FB"/>
<path d="M19.2047 33.3368L19.195 36.4415L11.4824 31.9887L11.4922 28.884L19.2047 33.3368Z" fill="#2E4277"/>
<path d="M13.355 30.8737L13.6342 30.7118L13.6239 32.7091L13.3447 32.871L13.355 30.8737Z" fill="#3955D1"/>
<path d="M12.8672 30.5915L13.1458 30.4296L13.6345 30.7117L13.3558 30.8736L12.8672 30.5915Z" fill="#6BB5FB"/>
<path d="M13.3553 30.8736L13.345 32.8709L12.8564 32.5888L12.8667 30.5916L13.3553 30.8736Z" fill="#4466FB"/>
<path d="M14.352 31.4493L14.6312 31.2874L14.621 33.2846L14.3418 33.4466L14.352 31.4493Z" fill="#3955D1"/>
<path d="M13.8643 31.1671L14.1429 31.0051L14.6315 31.2872L14.3529 31.4492L13.8643 31.1671Z" fill="#6BB5FB"/>
<path d="M14.3523 31.4492L14.3421 33.4465L13.8535 33.1644L13.8637 31.1671L14.3523 31.4492Z" fill="#4466FB"/>
<path d="M15.3491 32.0251L15.6283 31.8632L15.6181 33.8604L15.3389 34.0224L15.3491 32.0251Z" fill="#3955D1"/>
<path d="M14.8613 31.7429L15.14 31.5809L15.6286 31.863L15.3499 32.025L14.8613 31.7429Z" fill="#6BB5FB"/>
<path d="M15.3494 32.025L15.3392 34.0223L14.8506 33.7402L14.8608 31.7429L15.3494 32.025Z" fill="#4466FB"/>
<path d="M16.3462 32.6007L16.6254 32.4387L16.6151 34.436L16.3359 34.5979L16.3462 32.6007Z" fill="#3955D1"/>
<path d="M15.8584 32.3184L16.1371 32.1565L16.6257 32.4386L16.347 32.6005L15.8584 32.3184Z" fill="#6BB5FB"/>
<path d="M16.3465 32.6006L16.3363 34.5979L15.8477 34.3158L15.8579 32.3185L16.3465 32.6006Z" fill="#4466FB"/>
<path d="M17.3423 33.1761L17.6215 33.0142L17.6112 35.0114L17.332 35.1734L17.3423 33.1761Z" fill="#3955D1"/>
<path d="M16.8545 32.8939L17.1332 32.7319L17.6218 33.014L17.3431 33.176L16.8545 32.8939Z" fill="#6BB5FB"/>
<path d="M17.3426 33.176L17.3324 35.1733L16.8438 34.8912L16.854 32.8939L17.3426 33.176Z" fill="#4466FB"/>
<path d="M18.3393 33.7516L18.6186 33.5897L18.6083 35.5869L18.3291 35.7489L18.3393 33.7516Z" fill="#3955D1"/>
<path d="M17.8516 33.4694L18.1302 33.3074L18.6188 33.5895L18.3402 33.7515L17.8516 33.4694Z" fill="#6BB5FB"/>
<path d="M18.3396 33.7515L18.3294 35.7488L17.8408 35.4667L17.851 33.4694L18.3396 33.7515Z" fill="#4466FB"/>
<path d="M12.3589 30.2983L12.6381 30.1364L12.6278 32.1336L12.3486 32.2956L12.3589 30.2983Z" fill="#3955D1"/>
<path d="M11.8711 30.0161L12.1498 29.8541L12.6384 30.1362L12.3597 30.2982L11.8711 30.0161Z" fill="#6BB5FB"/>
<path d="M12.3592 30.2982L12.349 32.2955L11.8604 32.0134L11.8706 30.0161L12.3592 30.2982Z" fill="#4466FB"/>
<path d="M19.2047 37.4667L19.195 40.5714L11.4824 36.1186L11.4922 33.0139L19.2047 37.4667Z" fill="#2E4277"/>
<path d="M13.355 35.0036L13.6342 34.8417L13.6239 36.8389L13.3447 37.0009L13.355 35.0036Z" fill="#3955D1"/>
<path d="M12.8672 34.7214L13.1458 34.5594L13.6345 34.8415L13.3558 35.0035L12.8672 34.7214Z" fill="#6BB5FB"/>
<path d="M13.3553 35.0035L13.345 37.0008L12.8564 36.7187L12.8667 34.7214L13.3553 35.0035Z" fill="#4466FB"/>
<path d="M14.352 35.5792L14.6312 35.4172L14.621 37.4145L14.3418 37.5764L14.352 35.5792Z" fill="#3955D1"/>
<path d="M13.8643 35.2969L14.1429 35.135L14.6315 35.4171L14.3529 35.579L13.8643 35.2969Z" fill="#6BB5FB"/>
<path d="M14.3523 35.5791L14.3421 37.5764L13.8535 37.2943L13.8637 35.297L14.3523 35.5791Z" fill="#4466FB"/>
<path d="M15.3491 36.155L15.6283 35.993L15.6181 37.9903L15.3389 38.1523L15.3491 36.155Z" fill="#3955D1"/>
<path d="M14.8613 35.8728L15.14 35.7108L15.6286 35.9929L15.3499 36.1548L14.8613 35.8728Z" fill="#6BB5FB"/>
<path d="M15.3494 36.1549L15.3392 38.1522L14.8506 37.8701L14.8608 35.8728L15.3494 36.1549Z" fill="#4466FB"/>
<path d="M16.3462 36.7306L16.6254 36.5686L16.6151 38.5659L16.3359 38.7278L16.3462 36.7306Z" fill="#3955D1"/>
<path d="M15.8584 36.4483L16.1371 36.2864L16.6257 36.5685L16.347 36.7304L15.8584 36.4483Z" fill="#6BB5FB"/>
<path d="M16.3465 36.7305L16.3363 38.7277L15.8477 38.4456L15.8579 36.4484L16.3465 36.7305Z" fill="#4466FB"/>
<path d="M17.3423 37.306L17.6215 37.144L17.6112 39.1413L17.332 39.3032L17.3423 37.306Z" fill="#3955D1"/>
<path d="M16.8545 37.0238L17.1332 36.8618L17.6218 37.1439L17.3431 37.3059L16.8545 37.0238Z" fill="#6BB5FB"/>
<path d="M17.3426 37.3059L17.3324 39.3032L16.8438 39.0211L16.854 37.0238L17.3426 37.3059Z" fill="#4466FB"/>
<path d="M18.3393 37.8816L18.6186 37.7196L18.6083 39.7169L18.3291 39.8788L18.3393 37.8816Z" fill="#3955D1"/>
<path d="M17.8516 37.5993L18.1302 37.4374L18.6188 37.7195L18.3402 37.8814L17.8516 37.5993Z" fill="#6BB5FB"/>
<path d="M18.3396 37.8815L18.3294 39.8787L17.8408 39.5966L17.851 37.5994L18.3396 37.8815Z" fill="#4466FB"/>
<path d="M12.3589 34.4282L12.6381 34.2662L12.6278 36.2635L12.3486 36.4254L12.3589 34.4282Z" fill="#3955D1"/>
<path d="M11.8711 34.146L12.1498 33.984L12.6384 34.2661L12.3597 34.4281L11.8711 34.146Z" fill="#6BB5FB"/>
<path d="M12.3592 34.4281L12.349 36.4253L11.8604 36.1433L11.8706 34.146L12.3592 34.4281Z" fill="#4466FB"/>
<path d="M29.5848 36.6364C29.5436 36.6602 29.5096 36.7189 29.5098 36.7663C29.5099 36.8147 29.5441 36.8341 29.5853 36.8103L31.4166 35.753C31.4579 35.7292 31.4918 35.6704 31.4917 35.622C31.4915 35.5747 31.4574 35.5552 31.4162 35.579L29.5848 36.6364Z" fill="#384E85"/>
<path d="M29.5848 36.2326C29.5436 36.2564 29.5096 36.3152 29.5098 36.3636C29.5099 36.411 29.5441 36.4304 29.5853 36.4066L31.4166 35.3493C31.4579 35.3255 31.4918 35.2667 31.4917 35.2194C31.4915 35.171 31.4574 35.1515 31.4161 35.1753L29.5848 36.2326Z" fill="#384E85"/>
<path d="M29.5828 35.8301C29.5416 35.8539 29.5077 35.9116 29.5078 35.96C29.5079 36.0074 29.5421 36.0268 29.5833 36.003L31.4147 34.9457C31.4559 34.9219 31.4898 34.8631 31.4897 34.8158C31.4896 34.7674 31.4554 34.7489 31.4142 34.7727L29.5828 35.8301Z" fill="#384E85"/>
<path d="M29.5819 35.4268C29.5406 35.4506 29.5067 35.5083 29.5068 35.5567C29.507 35.6041 29.5411 35.6236 29.5823 35.5998L31.4137 34.5424C31.4549 34.5186 31.4889 34.4598 31.4887 34.4124C31.4886 34.3641 31.4544 34.3456 31.4132 34.3694L29.5819 35.4268Z" fill="#384E85"/>
<path d="M29.5809 34.6193C29.5397 34.6431 29.5057 34.7009 29.5059 34.7493C29.506 34.7966 29.5402 34.8161 29.5814 34.7923L31.4127 33.7349C31.454 33.7112 31.4879 33.6524 31.4878 33.605C31.4876 33.5566 31.4535 33.5382 31.4123 33.562L29.5809 34.6193Z" fill="#384E85"/>
<path d="M29.5809 35.0231C29.5397 35.0469 29.5057 35.1047 29.5059 35.1531C29.506 35.2004 29.5402 35.2199 29.5814 35.1961L31.4127 34.1388C31.454 34.115 31.4879 34.0562 31.4878 34.0088C31.4876 33.9604 31.4535 33.942 31.4123 33.9658L29.5809 35.0231Z" fill="#384E85"/>
<path d="M29.5848 32.963C29.5436 32.9868 29.5096 33.0456 29.5098 33.093C29.5099 33.1413 29.5441 33.1608 29.5853 33.137L31.4166 32.0797C31.4579 32.0559 31.4918 31.9971 31.4917 31.9487C31.4915 31.9013 31.4574 31.8819 31.4162 31.9057L29.5848 32.963Z" fill="#384E85"/>
<path d="M29.5848 32.5594C29.5436 32.5831 29.5096 32.6419 29.5098 32.6903C29.5099 32.7377 29.5441 32.7571 29.5853 32.7334L31.4166 31.676C31.4579 31.6522 31.4918 31.5934 31.4917 31.5461C31.4915 31.4977 31.4574 31.4782 31.4161 31.502L29.5848 32.5594Z" fill="#384E85"/>
<path d="M29.5828 32.1568C29.5416 32.1805 29.5077 32.2383 29.5078 32.2867C29.5079 32.334 29.5421 32.3535 29.5833 32.3297L31.4147 31.2724C31.4559 31.2486 31.4898 31.1898 31.4897 31.1424C31.4896 31.094 31.4554 31.0756 31.4142 31.0994L29.5828 32.1568Z" fill="#384E85"/>
<path d="M29.5819 31.7532C29.5406 31.777 29.5067 31.8347 29.5068 31.8831C29.507 31.9305 29.5411 31.9499 29.5823 31.9261L31.4137 30.8688C31.4549 30.845 31.4889 30.7862 31.4887 30.7389C31.4886 30.6905 31.4544 30.672 31.4132 30.6958L29.5819 31.7532Z" fill="#384E85"/>
<path d="M29.5809 30.9459C29.5397 30.9697 29.5057 31.0274 29.5059 31.0758C29.506 31.1232 29.5402 31.1426 29.5814 31.1188L31.4127 30.0615C31.454 30.0377 31.4879 29.9789 31.4878 29.9316C31.4876 29.8832 31.4535 29.8647 31.4123 29.8885L29.5809 30.9459Z" fill="#384E85"/>
<path d="M29.5809 31.3495C29.5397 31.3733 29.5057 31.431 29.5059 31.4794C29.506 31.5268 29.5402 31.5463 29.5814 31.5225L31.4127 30.4651C31.454 30.4413 31.4879 30.3825 31.4878 30.3352C31.4876 30.2868 31.4535 30.2684 31.4123 30.2921L29.5809 31.3495Z" fill="#384E85"/>
<path d="M29.5848 29.2895C29.5436 29.3133 29.5096 29.3721 29.5098 29.4194C29.5099 29.4678 29.5441 29.4873 29.5853 29.4635L31.4166 28.4061C31.4579 28.3823 31.4918 28.3236 31.4917 28.2752C31.4915 28.2278 31.4574 28.2083 31.4162 28.2321L29.5848 29.2895Z" fill="#384E85"/>
<path d="M29.5848 28.8858C29.5436 28.9096 29.5096 28.9683 29.5098 29.0167C29.5099 29.0641 29.5441 29.0836 29.5853 29.0598L31.4166 28.0024C31.4579 27.9786 31.4918 27.9198 31.4917 27.8725C31.4915 27.8241 31.4574 27.8046 31.4161 27.8284L29.5848 28.8858Z" fill="#384E85"/>
<path d="M29.5828 28.483C29.5416 28.5068 29.5077 28.5646 29.5078 28.613C29.5079 28.6603 29.5421 28.6798 29.5833 28.656L31.4147 27.5987C31.4559 27.5749 31.4898 27.5161 31.4897 27.4687C31.4896 27.4203 31.4554 27.4019 31.4142 27.4257L29.5828 28.483Z" fill="#384E85"/>
<path d="M29.5819 28.0798C29.5406 28.1036 29.5067 28.1613 29.5068 28.2097C29.507 28.2571 29.5411 28.2765 29.5823 28.2528L31.4137 27.1954C31.4549 27.1716 31.4889 27.1128 31.4887 27.0655C31.4886 27.0171 31.4544 26.9986 31.4132 27.0224L29.5819 28.0798Z" fill="#384E85"/>
<path d="M29.5809 27.2723C29.5397 27.2961 29.5057 27.3539 29.5059 27.4023C29.506 27.4496 29.5402 27.4691 29.5814 27.4453L31.4127 26.388C31.454 26.3642 31.4879 26.3054 31.4878 26.258C31.4876 26.2096 31.4535 26.1912 31.4123 26.215L29.5809 27.2723Z" fill="#384E85"/>
<path d="M29.5809 27.676C29.5397 27.6998 29.5057 27.7575 29.5059 27.8059C29.506 27.8533 29.5402 27.8727 29.5814 27.8489L31.4127 26.7916C31.454 26.7678 31.4879 26.709 31.4878 26.6617C31.4876 26.6133 31.4535 26.5948 31.4123 26.6186L29.5809 27.676Z" fill="#384E85"/>
<path d="M29.5848 25.6159C29.5436 25.6397 29.5096 25.6985 29.5098 25.7459C29.5099 25.7942 29.5441 25.8137 29.5853 25.7899L31.4166 24.7326C31.4579 24.7088 31.4918 24.65 31.4917 24.6016C31.4915 24.5542 31.4574 24.5348 31.4162 24.5586L29.5848 25.6159Z" fill="#384E85"/>
<path d="M29.5848 25.2122C29.5436 25.236 29.5096 25.2948 29.5098 25.3432C29.5099 25.3905 29.5441 25.41 29.5853 25.3862L31.4166 24.3288C31.4579 24.305 31.4918 24.2463 31.4917 24.1989C31.4915 24.1505 31.4574 24.1311 31.4161 24.1549L29.5848 25.2122Z" fill="#384E85"/>
<path d="M29.5828 24.8096C29.5416 24.8334 29.5077 24.8912 29.5078 24.9396C29.5079 24.9869 29.5421 25.0064 29.5833 24.9826L31.4147 23.9253C31.4559 23.9015 31.4898 23.8427 31.4897 23.7953C31.4896 23.7469 31.4554 23.7285 31.4142 23.7523L29.5828 24.8096Z" fill="#384E85"/>
<path d="M29.5819 24.4063C29.5406 24.4301 29.5067 24.4879 29.5068 24.5363C29.507 24.5836 29.5411 24.6031 29.5823 24.5793L31.4137 23.5219C31.4549 23.4981 31.4889 23.4394 31.4887 23.392C31.4886 23.3436 31.4544 23.3252 31.4132 23.349L29.5819 24.4063Z" fill="#384E85"/>
<path d="M29.5809 23.5989C29.5397 23.6227 29.5057 23.6805 29.5059 23.7289C29.506 23.7762 29.5402 23.7957 29.5814 23.7719L31.4127 22.7146C31.454 22.6908 31.4879 22.632 31.4878 22.5846C31.4876 22.5362 31.4535 22.5178 31.4123 22.5416L29.5809 23.5989Z" fill="#384E85"/>
<path d="M29.5809 24.0026C29.5397 24.0264 29.5057 24.0841 29.5059 24.1325C29.506 24.1799 29.5402 24.1993 29.5814 24.1755L31.4127 23.1182C31.454 23.0944 31.4879 23.0356 31.4878 22.9882C31.4876 22.9399 31.4535 22.9214 31.4123 22.9452L29.5809 24.0026Z" fill="#384E85"/>
<path d="M29.5848 21.9424C29.5436 21.9662 29.5096 22.025 29.5098 22.0723C29.5099 22.1207 29.5441 22.1402 29.5853 22.1164L31.4166 21.059C31.4579 21.0352 31.4918 20.9764 31.4917 20.9281C31.4915 20.8807 31.4574 20.8612 31.4162 20.885L29.5848 21.9424Z" fill="#384E85"/>
<path d="M29.5848 21.5387C29.5436 21.5625 29.5096 21.6213 29.5098 21.6697C29.5099 21.717 29.5441 21.7365 29.5853 21.7127L31.4166 20.6554C31.4579 20.6316 31.4918 20.5728 31.4917 20.5254C31.4915 20.4771 31.4574 20.4576 31.4161 20.4814L29.5848 21.5387Z" fill="#384E85"/>
<path d="M29.5828 21.1361C29.5416 21.1599 29.5077 21.2177 29.5078 21.2661C29.5079 21.3134 29.5421 21.3329 29.5833 21.3091L31.4147 20.2517C31.4559 20.2279 31.4898 20.1692 31.4897 20.1218C31.4896 20.0734 31.4554 20.055 31.4142 20.0788L29.5828 21.1361Z" fill="#384E85"/>
<path d="M29.5819 20.7327C29.5406 20.7565 29.5067 20.8142 29.5068 20.8626C29.507 20.91 29.5411 20.9294 29.5823 20.9056L31.4137 19.8483C31.4549 19.8245 31.4889 19.7657 31.4887 19.7184C31.4886 19.67 31.4544 19.6515 31.4132 19.6753L29.5819 20.7327Z" fill="#384E85"/>
<path d="M29.5809 19.9253C29.5397 19.9491 29.5057 20.0068 29.5059 20.0552C29.506 20.1026 29.5402 20.1221 29.5814 20.0983L31.4127 19.0409C31.454 19.0171 31.4879 18.9583 31.4878 18.911C31.4876 18.8626 31.4535 18.8442 31.4123 18.868L29.5809 19.9253Z" fill="#384E85"/>
<path d="M29.5809 20.329C29.5397 20.3528 29.5057 20.4105 29.5059 20.4589C29.506 20.5063 29.5402 20.5257 29.5814 20.5019L31.4127 19.4446C31.454 19.4208 31.4879 19.362 31.4878 19.3147C31.4876 19.2663 31.4535 19.2478 31.4123 19.2716L29.5809 20.329Z" fill="#384E85"/>
<path d="M29.5848 18.2691C29.5436 18.2929 29.5096 18.3517 29.5098 18.399C29.5099 18.4474 29.5441 18.4669 29.5853 18.4431L31.4166 17.3858C31.4579 17.362 31.4918 17.3032 31.4917 17.2548C31.4915 17.2074 31.4574 17.188 31.4162 17.2118L29.5848 18.2691Z" fill="#384E85"/>
<path d="M29.5848 17.8653C29.5436 17.8891 29.5096 17.9479 29.5098 17.9963C29.5099 18.0436 29.5441 18.0631 29.5853 18.0393L31.4166 16.982C31.4579 16.9582 31.4918 16.8994 31.4917 16.852C31.4915 16.8037 31.4574 16.7842 31.4161 16.808L29.5848 17.8653Z" fill="#384E85"/>
<path d="M29.5828 17.4626C29.5416 17.4864 29.5077 17.5441 29.5078 17.5925C29.5079 17.6399 29.5421 17.6594 29.5833 17.6356L31.4147 16.5782C31.4559 16.5544 31.4898 16.4956 31.4897 16.4483C31.4896 16.3999 31.4554 16.3815 31.4142 16.4052L29.5828 17.4626Z" fill="#384E85"/>
<path d="M29.5819 17.0593C29.5406 17.0831 29.5067 17.1408 29.5068 17.1892C29.507 17.2366 29.5411 17.256 29.5823 17.2322L31.4137 16.1749C31.4549 16.1511 31.4889 16.0923 31.4887 16.045C31.4886 15.9966 31.4544 15.9781 31.4132 16.0019L29.5819 17.0593Z" fill="#384E85"/>
<path d="M29.5809 16.2519C29.5397 16.2757 29.5057 16.3334 29.5059 16.3818C29.506 16.4292 29.5402 16.4486 29.5814 16.4249L31.4127 15.3675C31.454 15.3437 31.4879 15.2849 31.4878 15.2376C31.4876 15.1892 31.4535 15.1708 31.4123 15.1946L29.5809 16.2519Z" fill="#384E85"/>
<path d="M29.5809 16.6556C29.5397 16.6794 29.5057 16.7371 29.5059 16.7855C29.506 16.8329 29.5402 16.8524 29.5814 16.8286L31.4127 15.7712C31.454 15.7474 31.4879 15.6886 31.4878 15.6413C31.4876 15.5929 31.4535 15.5744 31.4123 15.5982L29.5809 16.6556Z" fill="#384E85"/>
<path d="M29.5848 14.5954C29.5436 14.6192 29.5096 14.678 29.5098 14.7253C29.5099 14.7737 29.5441 14.7932 29.5853 14.7694L31.4166 13.712C31.4579 13.6882 31.4918 13.6295 31.4917 13.5811C31.4915 13.5337 31.4574 13.5143 31.4162 13.5381L29.5848 14.5954Z" fill="#384E85"/>
<path d="M29.5848 14.1917C29.5436 14.2155 29.5096 14.2743 29.5098 14.3227C29.5099 14.3701 29.5441 14.3895 29.5853 14.3657L31.4166 13.3084C31.4579 13.2846 31.4918 13.2258 31.4917 13.1785C31.4915 13.1301 31.4574 13.1106 31.4161 13.1344L29.5848 14.1917Z" fill="#384E85"/>
<path d="M29.5828 13.7891C29.5416 13.8129 29.5077 13.8707 29.5078 13.9191C29.5079 13.9664 29.5421 13.9859 29.5833 13.9621L31.4147 12.9047C31.4559 12.881 31.4898 12.8222 31.4897 12.7748C31.4896 12.7264 31.4554 12.708 31.4142 12.7318L29.5828 13.7891Z" fill="#384E85"/>
<path d="M29.5819 13.3855C29.5406 13.4092 29.5067 13.467 29.5068 13.5154C29.507 13.5627 29.5411 13.5822 29.5823 13.5584L31.4137 12.5011C31.4549 12.4773 31.4889 12.4185 31.4887 12.3711C31.4886 12.3227 31.4544 12.3043 31.4132 12.3281L29.5819 13.3855Z" fill="#384E85"/>
<path d="M29.5809 12.5785C29.5397 12.6023 29.5057 12.66 29.5059 12.7084C29.506 12.7558 29.5402 12.7752 29.5814 12.7515L31.4127 11.6941C31.454 11.6703 31.4879 11.6115 31.4878 11.5642C31.4876 11.5158 31.4535 11.4974 31.4123 11.5212L29.5809 12.5785Z" fill="#384E85"/>
<path d="M29.5809 12.9821C29.5397 13.0059 29.5057 13.0636 29.5059 13.112C29.506 13.1594 29.5402 13.1788 29.5814 13.155L31.4127 12.0977C31.454 12.0739 31.4879 12.0151 31.4878 11.9677C31.4876 11.9194 31.4535 11.9009 31.4123 11.9247L29.5809 12.9821Z" fill="#384E85"/>
<path d="M19.4959 16.0815L20.6029 15.4382L20.5884 44.092L19.4814 44.7353L19.4959 16.0815Z" fill="#1B2A4F"/>
<path d="M8.06055 9.47932L9.16754 8.836L20.6027 15.4381L19.4957 16.0814L8.06055 9.47932Z" fill="#1B2A4F"/>
<path d="M8.0641 9.4826L8.04785 38.1349L19.4794 44.7339L19.4957 16.0816L8.0641 9.4826ZM18.1583 41.2084L9.23015 36.0543L9.23797 10.9291L18.174 16.0833L18.1583 41.2084Z" fill="#2E4277"/>
<path opacity="0.3" d="M9.2418 10.9274L9.22949 37.138L18.1573 42.2928L18.1702 16.0815L9.2418 10.9274Z" fill="#4466FB"/>
<path opacity="0.3" d="M11.3335 38.3522L18.1615 34.5412L18.162 33.6495L10.4209 37.8254L11.3335 38.3522Z" fill="#4466FB"/>
<path opacity="0.3" d="M9.22949 37.1381L9.4059 37.2399L18.1617 32.6587L18.1629 30.4032L9.2305 35.055L9.22949 37.1381Z" fill="#4466FB"/>
<path opacity="0.3" d="M18.1663 24.3419L9.23382 27.9108L9.2334 28.8025L18.1659 25.2336L18.1663 24.3419Z" fill="#4466FB"/>
<path opacity="0.3" d="M18.1671 21.0957L9.23453 24.6646L9.2334 26.9201L18.166 23.3512L18.1671 21.0957Z" fill="#4466FB"/>
<path opacity="0.3" d="M17.0985 15.4628L9.23773 18.6034L9.2373 19.4951L18.0112 15.9896L17.0985 15.4628Z" fill="#4466FB"/>
<path opacity="0.3" d="M13.7755 13.5447L9.23935 15.357L9.23828 17.6125L16.0841 14.8774L13.7755 13.5447Z" fill="#4466FB"/>
<path d="M19.2231 30.2276L18.721 30.5162C18.6852 30.5377 18.6542 30.5389 18.6304 30.5258L18.3382 30.3564L18.3394 30.5914C18.3406 30.7106 18.3823 30.7953 18.4515 30.8358L18.0305 30.5914C17.9625 30.5508 17.9196 30.4673 17.9196 30.3469L17.916 28.3591C17.9148 28.117 18.0854 27.8225 18.2953 27.702L18.7973 27.4122L19.2171 27.6555L18.7162 27.9453C18.5051 28.0669 18.3358 28.3615 18.3358 28.6036L18.3382 30.2515L18.8021 29.9832L19.2231 30.2276Z" fill="#B7C5FD"/>
<path d="M19.2172 27.6561L19.218 27.9474L18.7162 28.2371C18.6462 28.2776 18.59 28.3757 18.5903 28.4562L18.5939 30.4445C18.5941 30.525 18.6506 30.5572 18.7207 30.5167L19.2224 30.227L19.2233 30.5193L18.7215 30.809C18.5114 30.9303 18.3402 30.8319 18.3395 30.5913L18.3359 28.603C18.3353 28.3616 18.5053 28.0671 18.7154 27.9458L19.2172 27.6561Z" fill="#798FFE"/>
<path d="M46.9471 29.7077L58.6791 23.8099L58.6646 52.4639L46.9326 59.2818L46.9471 29.7077Z" fill="#1B2A4F"/>
<path d="M35.5107 24.0255L47.2427 17.2076L58.678 23.8098L46.946 30.6277L35.5107 24.0255Z" fill="#384E85"/>
<path d="M46.9468 30.6276L46.9324 59.2816L35.4971 52.6794L35.5115 24.0254L46.9468 30.6276Z" fill="#2E4277"/>
<path d="M36.8924 25.6214L36.202 25.2228L36.1885 52.2801L46.2413 58.0844L46.242 57.221L36.8796 51.8153L36.8924 25.6214Z" fill="#384E85"/>
<path d="M36.8927 25.6215L36.8799 51.8153L46.2423 57.221L46.2558 31.0265L36.8927 25.6215Z" fill="#1B2A4F"/>
<path d="M45.5486 32.0056L45.5388 35.1104L37.8262 30.6575L37.8359 27.5527L45.5486 32.0056Z" fill="#2E4277"/>
<path d="M39.6987 29.5425L39.9779 29.3806L39.9677 31.3778L39.6885 31.5398L39.6987 29.5425Z" fill="#3955D1"/>
<path d="M39.2109 29.2603L39.4896 29.0983L39.9782 29.3804L39.6995 29.5424L39.2109 29.2603Z" fill="#6BB5FB"/>
<path d="M39.699 29.5424L39.6888 31.5397L39.2002 31.2576L39.2104 29.2603L39.699 29.5424Z" fill="#4466FB"/>
<path d="M40.6958 30.1181L40.975 29.9561L40.9647 31.9534L40.6855 32.1153L40.6958 30.1181Z" fill="#3955D1"/>
<path d="M40.208 29.8358L40.4867 29.6739L40.9753 29.956L40.6966 30.1179L40.208 29.8358Z" fill="#6BB5FB"/>
<path d="M40.6961 30.118L40.6859 32.1153L40.1973 31.8332L40.2075 29.8359L40.6961 30.118Z" fill="#4466FB"/>
<path d="M41.6929 30.6939L41.972 30.532L41.9618 32.5293L41.6826 32.6912L41.6929 30.6939Z" fill="#3955D1"/>
<path d="M41.2051 30.4117L41.4838 30.2498L41.9724 30.5319L41.6937 30.6938L41.2051 30.4117Z" fill="#6BB5FB"/>
<path d="M41.6932 30.6938L41.683 32.6911L41.1943 32.409L41.2046 30.4117L41.6932 30.6938Z" fill="#4466FB"/>
<path d="M42.6899 31.2694L42.9692 31.1075L42.9589 33.1048L42.6797 33.2667L42.6899 31.2694Z" fill="#3955D1"/>
<path d="M42.2021 30.9872L42.4808 30.8253L42.9694 31.1074L42.6908 31.2693L42.2021 30.9872Z" fill="#6BB5FB"/>
<path d="M42.6902 31.2693L42.68 33.2666L42.1914 32.9845L42.2016 30.9872L42.6902 31.2693Z" fill="#4466FB"/>
<path d="M43.686 31.8449L43.9652 31.6829L43.955 33.6802L43.6758 33.8421L43.686 31.8449Z" fill="#3955D1"/>
<path d="M43.1982 31.5626L43.4769 31.4007L43.9655 31.6828L43.6868 31.8447L43.1982 31.5626Z" fill="#6BB5FB"/>
<path d="M43.6863 31.8448L43.6761 33.8421L43.1875 33.56L43.1977 31.5627L43.6863 31.8448Z" fill="#4466FB"/>
<path d="M44.6831 32.4204L44.9623 32.2585L44.9521 34.2558L44.6729 34.4177L44.6831 32.4204Z" fill="#3955D1"/>
<path d="M44.1953 32.1382L44.474 31.9763L44.9626 32.2584L44.6839 32.4203L44.1953 32.1382Z" fill="#6BB5FB"/>
<path d="M44.6834 32.4203L44.6732 34.4176L44.1846 34.1355L44.1948 32.1382L44.6834 32.4203Z" fill="#4466FB"/>
<path d="M38.7026 28.9671L38.9818 28.8051L38.9716 30.8024L38.6924 30.9643L38.7026 28.9671Z" fill="#3955D1"/>
<path d="M38.2148 28.6848L38.4935 28.5229L38.9821 28.805L38.7034 28.9669L38.2148 28.6848Z" fill="#6BB5FB"/>
<path d="M38.7029 28.967L38.6927 30.9643L38.2041 30.6822L38.2143 28.6849L38.7029 28.967Z" fill="#4466FB"/>
<path d="M45.5486 36.1359L45.5388 39.2407L37.8262 34.7878L37.8359 31.683L45.5486 36.1359Z" fill="#2E4277"/>
<path d="M39.6987 33.6728L39.9779 33.5109L39.9677 35.5081L39.6885 35.6701L39.6987 33.6728Z" fill="#3955D1"/>
<path d="M39.2109 33.3906L39.4896 33.2286L39.9782 33.5107L39.6995 33.6727L39.2109 33.3906Z" fill="#6BB5FB"/>
<path d="M39.699 33.6727L39.6888 35.67L39.2002 35.3879L39.2104 33.3906L39.699 33.6727Z" fill="#4466FB"/>
<path d="M40.6958 34.2484L40.975 34.0864L40.9647 36.0837L40.6855 36.2457L40.6958 34.2484Z" fill="#3955D1"/>
<path d="M40.208 33.9661L40.4867 33.8042L40.9753 34.0863L40.6966 34.2482L40.208 33.9661Z" fill="#6BB5FB"/>
<path d="M40.6961 34.2483L40.6859 36.2456L40.1973 35.9635L40.2075 33.9662L40.6961 34.2483Z" fill="#4466FB"/>
<path d="M41.6929 34.8242L41.972 34.6622L41.9618 36.6595L41.6826 36.8215L41.6929 34.8242Z" fill="#3955D1"/>
<path d="M41.2051 34.542L41.4838 34.38L41.9724 34.6621L41.6937 34.8241L41.2051 34.542Z" fill="#6BB5FB"/>
<path d="M41.6932 34.8241L41.683 36.8214L41.1943 36.5393L41.2046 34.542L41.6932 34.8241Z" fill="#4466FB"/>
<path d="M42.6899 35.3997L42.9692 35.2378L42.9589 37.2351L42.6797 37.397L42.6899 35.3997Z" fill="#3955D1"/>
<path d="M42.2021 35.1175L42.4808 34.9556L42.9694 35.2377L42.6908 35.3996L42.2021 35.1175Z" fill="#6BB5FB"/>
<path d="M42.6902 35.3996L42.68 37.3969L42.1914 37.1148L42.2016 35.1176L42.6902 35.3996Z" fill="#4466FB"/>
<path d="M43.686 35.9752L43.9652 35.8132L43.955 37.8105L43.6758 37.9725L43.686 35.9752Z" fill="#3955D1"/>
<path d="M43.1982 35.6929L43.4769 35.531L43.9655 35.8131L43.6868 35.975L43.1982 35.6929Z" fill="#6BB5FB"/>
<path d="M43.6863 35.9751L43.6761 37.9724L43.1875 37.6903L43.1977 35.693L43.6863 35.9751Z" fill="#4466FB"/>
<path d="M44.6831 36.5507L44.9623 36.3888L44.9521 38.3861L44.6729 38.548L44.6831 36.5507Z" fill="#3955D1"/>
<path d="M44.1953 36.2685L44.474 36.1066L44.9626 36.3887L44.6839 36.5506L44.1953 36.2685Z" fill="#6BB5FB"/>
<path d="M44.6834 36.5507L44.6732 38.5479L44.1846 38.2658L44.1948 36.2686L44.6834 36.5507Z" fill="#4466FB"/>
<path d="M38.7026 33.0974L38.9818 32.9354L38.9716 34.9327L38.6924 35.0947L38.7026 33.0974Z" fill="#3955D1"/>
<path d="M38.2148 32.8151L38.4935 32.6532L38.9821 32.9353L38.7034 33.0972L38.2148 32.8151Z" fill="#6BB5FB"/>
<path d="M38.7029 33.0973L38.6927 35.0946L38.2041 34.8125L38.2143 32.8152L38.7029 33.0973Z" fill="#4466FB"/>
<path d="M45.5486 40.2663L45.5388 43.3711L37.8262 38.9182L37.8359 35.8134L45.5486 40.2663Z" fill="#2E4277"/>
<path d="M39.6987 37.8032L39.9779 37.6412L39.9677 39.6385L39.6885 39.8005L39.6987 37.8032Z" fill="#3955D1"/>
<path d="M39.2109 37.521L39.4896 37.359L39.9782 37.6411L39.6995 37.8031L39.2109 37.521Z" fill="#6BB5FB"/>
<path d="M39.699 37.8031L39.6888 39.8004L39.2002 39.5183L39.2104 37.521L39.699 37.8031Z" fill="#4466FB"/>
<path d="M40.6958 38.3787L40.975 38.2168L40.9647 40.2141L40.6855 40.376L40.6958 38.3787Z" fill="#3955D1"/>
<path d="M40.208 38.0965L40.4867 37.9346L40.9753 38.2167L40.6966 38.3786L40.208 38.0965Z" fill="#6BB5FB"/>
<path d="M40.6961 38.3787L40.6859 40.3759L40.1973 40.0938L40.2075 38.0966L40.6961 38.3787Z" fill="#4466FB"/>
<path d="M41.6929 38.9545L41.972 38.7926L41.9618 40.7899L41.6826 40.9518L41.6929 38.9545Z" fill="#3955D1"/>
<path d="M41.2051 38.6723L41.4838 38.5104L41.9724 38.7925L41.6937 38.9544L41.2051 38.6723Z" fill="#6BB5FB"/>
<path d="M41.6932 38.9545L41.683 40.9517L41.1943 40.6696L41.2046 38.6724L41.6932 38.9545Z" fill="#4466FB"/>
<path d="M42.6899 39.5301L42.9692 39.3682L42.9589 41.3654L42.6797 41.5274L42.6899 39.5301Z" fill="#3955D1"/>
<path d="M42.2021 39.2479L42.4808 39.0859L42.9694 39.368L42.6908 39.53L42.2021 39.2479Z" fill="#6BB5FB"/>
<path d="M42.6902 39.53L42.68 41.5273L42.1914 41.2452L42.2016 39.2479L42.6902 39.53Z" fill="#4466FB"/>
<path d="M43.686 40.1056L43.9652 39.9436L43.955 41.9409L43.6758 42.1028L43.686 40.1056Z" fill="#3955D1"/>
<path d="M43.1982 39.8233L43.4769 39.6614L43.9655 39.9435L43.6868 40.1054L43.1982 39.8233Z" fill="#6BB5FB"/>
<path d="M43.6863 40.1055L43.6761 42.1027L43.1875 41.8206L43.1977 39.8234L43.6863 40.1055Z" fill="#4466FB"/>
<path d="M44.6831 40.6811L44.9623 40.5192L44.9521 42.5164L44.6729 42.6784L44.6831 40.6811Z" fill="#3955D1"/>
<path d="M44.1953 40.3989L44.474 40.2369L44.9626 40.519L44.6839 40.681L44.1953 40.3989Z" fill="#6BB5FB"/>
<path d="M44.6834 40.681L44.6732 42.6783L44.1846 42.3962L44.1948 40.3989L44.6834 40.681Z" fill="#4466FB"/>
<path d="M38.7026 37.2277L38.9818 37.0658L38.9716 39.0631L38.6924 39.225L38.7026 37.2277Z" fill="#3955D1"/>
<path d="M38.2148 36.9455L38.4935 36.7836L38.9821 37.0657L38.7034 37.2276L38.2148 36.9455Z" fill="#6BB5FB"/>
<path d="M38.7029 37.2277L38.6927 39.2249L38.2041 38.9428L38.2143 36.9456L38.7029 37.2277Z" fill="#4466FB"/>
<path d="M45.5486 44.3962L45.5388 47.5009L37.8262 43.048L37.8359 39.9433L45.5486 44.3962Z" fill="#2E4277"/>
<path d="M39.6987 41.9331L39.9779 41.7711L39.9677 43.7684L39.6885 43.9303L39.6987 41.9331Z" fill="#3955D1"/>
<path d="M39.2109 41.6508L39.4896 41.4889L39.9782 41.771L39.6995 41.9329L39.2109 41.6508Z" fill="#6BB5FB"/>
<path d="M39.699 41.933L39.6888 43.9302L39.2002 43.6482L39.2104 41.6509L39.699 41.933Z" fill="#4466FB"/>
<path d="M40.6958 42.5086L40.975 42.3467L40.9647 44.344L40.6855 44.5059L40.6958 42.5086Z" fill="#3955D1"/>
<path d="M40.208 42.2264L40.4867 42.0645L40.9753 42.3465L40.6966 42.5085L40.208 42.2264Z" fill="#6BB5FB"/>
<path d="M40.6961 42.5085L40.6859 44.5058L40.1973 44.2237L40.2075 42.2264L40.6961 42.5085Z" fill="#4466FB"/>
<path d="M41.6929 43.0844L41.972 42.9225L41.9618 44.9198L41.6826 45.0817L41.6929 43.0844Z" fill="#3955D1"/>
<path d="M41.2051 42.8022L41.4838 42.6403L41.9724 42.9224L41.6937 43.0843L41.2051 42.8022Z" fill="#6BB5FB"/>
<path d="M41.6932 43.0843L41.683 45.0816L41.1943 44.7995L41.2046 42.8022L41.6932 43.0843Z" fill="#4466FB"/>
<path d="M42.6899 43.66L42.9692 43.498L42.9589 45.4953L42.6797 45.6573L42.6899 43.66Z" fill="#3955D1"/>
<path d="M42.2021 43.3778L42.4808 43.2158L42.9694 43.4979L42.6908 43.6599L42.2021 43.3778Z" fill="#6BB5FB"/>
<path d="M42.6902 43.6599L42.68 45.6572L42.1914 45.3751L42.2016 43.3778L42.6902 43.6599Z" fill="#4466FB"/>
<path d="M43.686 44.2354L43.9652 44.0735L43.955 46.0708L43.6758 46.2327L43.686 44.2354Z" fill="#3955D1"/>
<path d="M43.1982 43.9532L43.4769 43.7913L43.9655 44.0734L43.6868 44.2353L43.1982 43.9532Z" fill="#6BB5FB"/>
<path d="M43.6863 44.2353L43.6761 46.2326L43.1875 45.9505L43.1977 43.9532L43.6863 44.2353Z" fill="#4466FB"/>
<path d="M44.6831 44.811L44.9623 44.649L44.9521 46.6463L44.6729 46.8083L44.6831 44.811Z" fill="#3955D1"/>
<path d="M44.1953 44.5288L44.474 44.3668L44.9626 44.6489L44.6839 44.8109L44.1953 44.5288Z" fill="#6BB5FB"/>
<path d="M44.6834 44.8109L44.6732 46.8082L44.1846 46.5261L44.1948 44.5288L44.6834 44.8109Z" fill="#4466FB"/>
<path d="M38.7026 41.3576L38.9818 41.1957L38.9716 43.193L38.6924 43.3549L38.7026 41.3576Z" fill="#3955D1"/>
<path d="M38.2148 41.0754L38.4935 40.9135L38.9821 41.1956L38.7034 41.3575L38.2148 41.0754Z" fill="#6BB5FB"/>
<path d="M38.7029 41.3575L38.6927 43.3548L38.2041 43.0727L38.2143 41.0754L38.7029 41.3575Z" fill="#4466FB"/>
<path d="M45.5486 48.5266L45.5388 51.6313L37.8262 47.1784L37.8359 44.0737L45.5486 48.5266Z" fill="#2E4277"/>
<path d="M39.6987 46.0634L39.9779 45.9015L39.9677 47.8988L39.6885 48.0607L39.6987 46.0634Z" fill="#3955D1"/>
<path d="M39.2109 45.7812L39.4896 45.6193L39.9782 45.9014L39.6995 46.0633L39.2109 45.7812Z" fill="#6BB5FB"/>
<path d="M39.699 46.0634L39.6888 48.0606L39.2002 47.7785L39.2104 45.7812L39.699 46.0634Z" fill="#4466FB"/>
<path d="M40.6958 46.639L40.975 46.4771L40.9647 48.4743L40.6855 48.6363L40.6958 46.639Z" fill="#3955D1"/>
<path d="M40.208 46.3568L40.4867 46.1948L40.9753 46.4769L40.6966 46.6389L40.208 46.3568Z" fill="#6BB5FB"/>
<path d="M40.6961 46.6389L40.6859 48.6362L40.1973 48.3541L40.2075 46.3568L40.6961 46.6389Z" fill="#4466FB"/>
<path d="M41.6929 47.2148L41.972 47.0529L41.9618 49.0501L41.6826 49.2121L41.6929 47.2148Z" fill="#3955D1"/>
<path d="M41.2051 46.9326L41.4838 46.7706L41.9724 47.0527L41.6937 47.2147L41.2051 46.9326Z" fill="#6BB5FB"/>
<path d="M41.6932 47.2147L41.683 49.212L41.1943 48.9299L41.2046 46.9326L41.6932 47.2147Z" fill="#4466FB"/>
<path d="M42.6899 47.7904L42.9692 47.6284L42.9589 49.6257L42.6797 49.7876L42.6899 47.7904Z" fill="#3955D1"/>
<path d="M42.2021 47.5081L42.4808 47.3462L42.9694 47.6283L42.6908 47.7902L42.2021 47.5081Z" fill="#6BB5FB"/>
<path d="M42.6902 47.7903L42.68 49.7876L42.1914 49.5055L42.2016 47.5082L42.6902 47.7903Z" fill="#4466FB"/>
<path d="M43.686 48.3658L43.9652 48.2039L43.955 50.2011L43.6758 50.3631L43.686 48.3658Z" fill="#3955D1"/>
<path d="M43.1982 48.0836L43.4769 47.9216L43.9655 48.2037L43.6868 48.3657L43.1982 48.0836Z" fill="#6BB5FB"/>
<path d="M43.6863 48.3657L43.6761 50.363L43.1875 50.0809L43.1977 48.0836L43.6863 48.3657Z" fill="#4466FB"/>
<path d="M44.6831 48.9414L44.9623 48.7794L44.9521 50.7767L44.6729 50.9386L44.6831 48.9414Z" fill="#3955D1"/>
<path d="M44.1953 48.6591L44.474 48.4972L44.9626 48.7793L44.6839 48.9412L44.1953 48.6591Z" fill="#6BB5FB"/>
<path d="M44.6834 48.9413L44.6732 50.9386L44.1846 50.6565L44.1948 48.6592L44.6834 48.9413Z" fill="#4466FB"/>
<path d="M38.7026 45.488L38.9818 45.326L38.9716 47.3233L38.6924 47.4853L38.7026 45.488Z" fill="#3955D1"/>
<path d="M38.2148 45.2058L38.4935 45.0438L38.9821 45.3259L38.7034 45.4879L38.2148 45.2058Z" fill="#6BB5FB"/>
<path d="M38.7029 45.4879L38.6927 47.4852L38.2041 47.2031L38.2143 45.2058L38.7029 45.4879Z" fill="#4466FB"/>
<path d="M45.5486 52.6567L45.5388 55.7615L37.8262 51.3086L37.8359 48.2039L45.5486 52.6567Z" fill="#2E4277"/>
<path d="M39.6987 50.1937L39.9779 50.0317L39.9677 52.029L39.6885 52.191L39.6987 50.1937Z" fill="#3955D1"/>
<path d="M39.2109 49.9115L39.4896 49.7495L39.9782 50.0316L39.6995 50.1936L39.2109 49.9115Z" fill="#6BB5FB"/>
<path d="M39.699 50.1936L39.6888 52.1909L39.2002 51.9088L39.2104 49.9115L39.699 50.1936Z" fill="#4466FB"/>
<path d="M40.6958 50.7692L40.975 50.6072L40.9647 52.6045L40.6855 52.7665L40.6958 50.7692Z" fill="#3955D1"/>
<path d="M40.208 50.487L40.4867 50.325L40.9753 50.6071L40.6966 50.7691L40.208 50.487Z" fill="#6BB5FB"/>
<path d="M40.6961 50.7691L40.6859 52.7664L40.1973 52.4843L40.2075 50.487L40.6961 50.7691Z" fill="#4466FB"/>
<path d="M41.6929 51.345L41.972 51.1831L41.9618 53.1804L41.6826 53.3423L41.6929 51.345Z" fill="#3955D1"/>
<path d="M41.2051 51.0628L41.4838 50.9009L41.9724 51.183L41.6937 51.3449L41.2051 51.0628Z" fill="#6BB5FB"/>
<path d="M41.6932 51.345L41.683 53.3423L41.1943 53.0602L41.2046 51.0629L41.6932 51.345Z" fill="#4466FB"/>
<path d="M42.6899 51.9206L42.9692 51.7586L42.9589 53.7559L42.6797 53.9178L42.6899 51.9206Z" fill="#3955D1"/>
<path d="M42.2021 51.6383L42.4808 51.4764L42.9694 51.7585L42.6908 51.9204L42.2021 51.6383Z" fill="#6BB5FB"/>
<path d="M42.6902 51.9205L42.68 53.9177L42.1914 53.6356L42.2016 51.6384L42.6902 51.9205Z" fill="#4466FB"/>
<path d="M43.686 52.496L43.9652 52.334L43.955 54.3313L43.6758 54.4933L43.686 52.496Z" fill="#3955D1"/>
<path d="M43.1982 52.2138L43.4769 52.0518L43.9655 52.3339L43.6868 52.4959L43.1982 52.2138Z" fill="#6BB5FB"/>
<path d="M43.6863 52.4959L43.6761 54.4932L43.1875 54.2111L43.1977 52.2138L43.6863 52.4959Z" fill="#4466FB"/>
<path d="M44.6831 53.0715L44.9623 52.9096L44.9521 54.9069L44.6729 55.0688L44.6831 53.0715Z" fill="#3955D1"/>
<path d="M44.1953 52.7893L44.474 52.6274L44.9626 52.9095L44.6839 53.0714L44.1953 52.7893Z" fill="#6BB5FB"/>
<path d="M44.6834 53.0715L44.6732 55.0687L44.1846 54.7866L44.1948 52.7894L44.6834 53.0715Z" fill="#4466FB"/>
<path d="M38.7026 49.6182L38.9818 49.4562L38.9716 51.4535L38.6924 51.6155L38.7026 49.6182Z" fill="#3955D1"/>
<path d="M38.2148 49.336L38.4935 49.174L38.9821 49.4561L38.7034 49.618L38.2148 49.336Z" fill="#6BB5FB"/>
<path d="M38.7029 49.6181L38.6927 51.6154L38.2041 51.3333L38.2143 49.336L38.7029 49.6181Z" fill="#4466FB"/>
<path d="M55.9295 51.8259C55.8883 51.8497 55.8544 51.9085 55.8545 51.9558C55.8546 52.0042 55.8888 52.0237 55.93 51.9999L57.7614 50.9425C57.8026 50.9187 57.8365 50.8599 57.8364 50.8116C57.8363 50.7642 57.8021 50.7447 57.7609 50.7685L55.9295 51.8259Z" fill="#384E85"/>
<path d="M55.9285 51.4226C55.8873 51.4464 55.8534 51.5052 55.8535 51.5536C55.8536 51.6009 55.8878 51.6204 55.929 51.5966L57.7604 50.5392C57.8017 50.5154 57.8356 50.4567 57.8354 50.4093C57.8353 50.3609 57.8012 50.3414 57.7599 50.3652L55.9285 51.4226Z" fill="#384E85"/>
<path d="M55.9276 51.02C55.8863 51.0438 55.8524 51.1015 55.8525 51.1499C55.8527 51.1973 55.8868 51.2168 55.928 51.193L57.7595 50.1356C57.8007 50.1118 57.8346 50.053 57.8345 50.0057C57.8343 49.9573 57.8002 49.9388 57.759 49.9626L55.9276 51.02Z" fill="#384E85"/>
<path d="M55.9256 50.6162C55.8844 50.64 55.8505 50.6977 55.8506 50.7461C55.8507 50.7935 55.8849 50.8129 55.9261 50.7891L57.7575 49.7318C57.7987 49.708 57.8326 49.6492 57.8325 49.6018C57.8324 49.5534 57.7982 49.535 57.757 49.5588L55.9256 50.6162Z" fill="#384E85"/>
<path d="M55.9236 49.8091C55.8824 49.8329 55.8485 49.8907 55.8486 49.939C55.8488 49.9864 55.8829 50.0059 55.9241 49.9821L57.7555 48.9247C57.7967 48.9009 57.8307 48.8421 57.8305 48.7948C57.8304 48.7464 57.7963 48.7279 57.755 48.7517L55.9236 49.8091Z" fill="#384E85"/>
<path d="M55.9246 50.2128C55.8834 50.2366 55.8495 50.2943 55.8496 50.3427C55.8497 50.3901 55.8839 50.4096 55.9251 50.3858L57.7565 49.3284C57.7977 49.3046 57.8316 49.2458 57.8315 49.1985C57.8314 49.1501 57.7972 49.1316 57.756 49.1554L55.9246 50.2128Z" fill="#384E85"/>
<path d="M55.9295 48.1524C55.8883 48.1762 55.8544 48.2349 55.8545 48.2823C55.8546 48.3307 55.8888 48.3501 55.93 48.3263L57.7614 47.269C57.8026 47.2452 57.8365 47.1864 57.8364 47.138C57.8363 47.0907 57.8021 47.0712 57.7609 47.095L55.9295 48.1524Z" fill="#384E85"/>
<path d="M55.9285 47.7491C55.8873 47.7729 55.8534 47.8317 55.8535 47.88C55.8536 47.9274 55.8878 47.9469 55.929 47.9231L57.7604 46.8657C57.8017 46.8419 57.8356 46.7831 57.8354 46.7358C57.8353 46.6874 57.8012 46.6679 57.7599 46.6917L55.9285 47.7491Z" fill="#384E85"/>
<path d="M55.9276 47.3463C55.8863 47.3701 55.8524 47.4278 55.8525 47.4762C55.8527 47.5236 55.8868 47.543 55.928 47.5192L57.7595 46.4619C57.8007 46.4381 57.8346 46.3793 57.8345 46.3319C57.8343 46.2835 57.8002 46.2651 57.759 46.2889L55.9276 47.3463Z" fill="#384E85"/>
<path d="M55.9256 46.9427C55.8844 46.9665 55.8505 47.0242 55.8506 47.0726C55.8507 47.12 55.8849 47.1394 55.9261 47.1156L57.7575 46.0583C57.7987 46.0345 57.8326 45.9757 57.8325 45.9283C57.8324 45.8799 57.7982 45.8615 57.757 45.8853L55.9256 46.9427Z" fill="#384E85"/>
<path d="M55.9236 46.1356C55.8824 46.1594 55.8485 46.2171 55.8486 46.2655C55.8488 46.3129 55.8829 46.3323 55.9241 46.3085L57.7555 45.2512C57.7967 45.2274 57.8307 45.1686 57.8305 45.1212C57.8304 45.0729 57.7963 45.0544 57.755 45.0782L55.9236 46.1356Z" fill="#384E85"/>
<path d="M55.9246 46.5393C55.8834 46.5631 55.8495 46.6208 55.8496 46.6692C55.8497 46.7166 55.8839 46.736 55.9251 46.7122L57.7565 45.6549C57.7977 45.6311 57.8316 45.5723 57.8315 45.5249C57.8314 45.4766 57.7972 45.4581 57.756 45.4819L55.9246 46.5393Z" fill="#384E85"/>
<path d="M55.9295 44.4788C55.8883 44.5026 55.8544 44.5613 55.8545 44.6087C55.8546 44.6571 55.8888 44.6766 55.93 44.6528L57.7614 43.5954C57.8026 43.5716 57.8365 43.5128 57.8364 43.4644C57.8363 43.4171 57.8021 43.3976 57.7609 43.4214L55.9295 44.4788Z" fill="#384E85"/>
<path d="M55.9285 44.0755C55.8873 44.0993 55.8534 44.1581 55.8535 44.2064C55.8536 44.2538 55.8878 44.2733 55.929 44.2495L57.7604 43.1921C57.8017 43.1683 57.8356 43.1095 57.8354 43.0622C57.8353 43.0138 57.8012 42.9943 57.7599 43.0181L55.9285 44.0755Z" fill="#384E85"/>
<path d="M55.9276 43.6729C55.8863 43.6967 55.8524 43.7544 55.8525 43.8028C55.8527 43.8502 55.8868 43.8696 55.928 43.8458L57.7595 42.7885C57.8007 42.7647 57.8346 42.7059 57.8345 42.6585C57.8343 42.6102 57.8002 42.5917 57.759 42.6155L55.9276 43.6729Z" fill="#384E85"/>
<path d="M55.9256 43.2691C55.8844 43.2929 55.8505 43.3506 55.8506 43.399C55.8507 43.4464 55.8849 43.4658 55.9261 43.442L57.7575 42.3847C57.7987 42.3609 57.8326 42.3021 57.8325 42.2547C57.8324 42.2063 57.7982 42.1879 57.757 42.2117L55.9256 43.2691Z" fill="#384E85"/>
<path d="M55.9236 42.462C55.8824 42.4858 55.8485 42.5436 55.8486 42.5919C55.8488 42.6393 55.8829 42.6588 55.9241 42.635L57.7555 41.5776C57.7967 41.5538 57.8307 41.495 57.8305 41.4477C57.8304 41.3993 57.7963 41.3808 57.755 41.4046L55.9236 42.462Z" fill="#384E85"/>
<path d="M55.9246 42.8657C55.8834 42.8895 55.8495 42.9472 55.8496 42.9956C55.8497 43.043 55.8839 43.0624 55.9251 43.0386L57.7565 41.9813C57.7977 41.9575 57.8316 41.8987 57.8315 41.8513C57.8314 41.803 57.7972 41.7845 57.756 41.8083L55.9246 42.8657Z" fill="#384E85"/>
<path d="M55.9295 40.8053C55.8883 40.8291 55.8544 40.8879 55.8545 40.9353C55.8546 40.9836 55.8888 41.0031 55.93 40.9793L57.7614 39.9219C57.8026 39.8981 57.8365 39.8394 57.8364 39.791C57.8363 39.7436 57.8021 39.7242 57.7609 39.7479L55.9295 40.8053Z" fill="#384E85"/>
<path d="M55.9285 40.4021C55.8873 40.4259 55.8534 40.4847 55.8535 40.533C55.8536 40.5804 55.8878 40.5999 55.929 40.5761L57.7604 39.5187C57.8017 39.4949 57.8356 39.4361 57.8354 39.3888C57.8353 39.3404 57.8012 39.3209 57.7599 39.3447L55.9285 40.4021Z" fill="#384E85"/>
<path d="M55.9276 39.9994C55.8863 40.0232 55.8524 40.081 55.8525 40.1293C55.8527 40.1767 55.8868 40.1962 55.928 40.1724L57.7595 39.115C57.8007 39.0912 57.8346 39.0324 57.8345 38.9851C57.8343 38.9367 57.8002 38.9183 57.759 38.9421L55.9276 39.9994Z" fill="#384E85"/>
<path d="M55.9256 39.5956C55.8844 39.6194 55.8505 39.6772 55.8506 39.7255C55.8507 39.7729 55.8849 39.7924 55.9261 39.7686L57.7575 38.7112C57.7987 38.6874 57.8326 38.6286 57.8325 38.5813C57.8324 38.5329 57.7982 38.5144 57.757 38.5382L55.9256 39.5956Z" fill="#384E85"/>
<path d="M55.9236 38.7885C55.8824 38.8123 55.8485 38.8701 55.8486 38.9185C55.8488 38.9658 55.8829 38.9853 55.9241 38.9615L57.7555 37.9041C57.7967 37.8803 57.8307 37.8216 57.8305 37.7742C57.8304 37.7258 57.7963 37.7074 57.755 37.7312L55.9236 38.7885Z" fill="#384E85"/>
<path d="M55.9246 39.1922C55.8834 39.216 55.8495 39.2738 55.8496 39.3221C55.8497 39.3695 55.8839 39.389 55.9251 39.3652L57.7565 38.3078C57.7977 38.284 57.8316 38.2252 57.8315 38.1779C57.8314 38.1295 57.7972 38.1111 57.756 38.1349L55.9246 39.1922Z" fill="#384E85"/>
<path d="M55.9295 37.1319C55.8883 37.1557 55.8544 37.2145 55.8545 37.2618C55.8546 37.3102 55.8888 37.3297 55.93 37.3059L57.7614 36.2485C57.8026 36.2247 57.8365 36.166 57.8364 36.1176C57.8363 36.0702 57.8021 36.0508 57.7609 36.0746L55.9295 37.1319Z" fill="#384E85"/>
<path d="M55.9285 36.7286C55.8873 36.7524 55.8534 36.8112 55.8535 36.8596C55.8536 36.9069 55.8878 36.9264 55.929 36.9026L57.7604 35.8453C57.8017 35.8215 57.8356 35.7627 57.8354 35.7153C57.8353 35.6669 57.8012 35.6475 57.7599 35.6713L55.9285 36.7286Z" fill="#384E85"/>
<path d="M55.9276 36.326C55.8863 36.3498 55.8524 36.4076 55.8525 36.456C55.8527 36.5033 55.8868 36.5228 55.928 36.499L57.7595 35.4416C57.8007 35.4178 57.8346 35.359 57.8345 35.3117C57.8343 35.2633 57.8002 35.2449 57.759 35.2687L55.9276 36.326Z" fill="#384E85"/>
<path d="M55.9256 35.9222C55.8844 35.946 55.8505 36.0038 55.8506 36.0522C55.8507 36.0995 55.8849 36.119 55.9261 36.0952L57.7575 35.0378C57.7987 35.014 57.8326 34.9552 57.8325 34.9079C57.8324 34.8595 57.7982 34.841 57.757 34.8648L55.9256 35.9222Z" fill="#384E85"/>
<path d="M55.9236 35.1151C55.8824 35.1389 55.8485 35.1967 55.8486 35.2451C55.8488 35.2924 55.8829 35.3119 55.9241 35.2881L57.7555 34.2307C57.7967 34.2069 57.8307 34.1482 57.8305 34.1008C57.8304 34.0524 57.7963 34.034 57.755 34.0578L55.9236 35.1151Z" fill="#384E85"/>
<path d="M55.9246 35.5188C55.8834 35.5426 55.8495 35.6004 55.8496 35.6488C55.8497 35.6961 55.8839 35.7156 55.9251 35.6918L57.7565 34.6344C57.7977 34.6106 57.8316 34.5518 57.8315 34.5045C57.8314 34.4561 57.7972 34.4377 57.756 34.4615L55.9246 35.5188Z" fill="#384E85"/>
<path d="M55.9295 33.4582C55.8883 33.482 55.8544 33.5407 55.8545 33.5881C55.8546 33.6365 55.8888 33.6559 55.93 33.6321L57.7614 32.5748C57.8026 32.551 57.8365 32.4922 57.8364 32.4438C57.8363 32.3965 57.8021 32.377 57.7609 32.4008L55.9295 33.4582Z" fill="#384E85"/>
<path d="M55.9285 33.0549C55.8873 33.0787 55.8534 33.1375 55.8535 33.1859C55.8536 33.2332 55.8878 33.2527 55.929 33.2289L57.7604 32.1716C57.8017 32.1478 57.8356 32.089 57.8354 32.0416C57.8353 31.9932 57.8012 31.9738 57.7599 31.9976L55.9285 33.0549Z" fill="#384E85"/>
<path d="M55.9276 32.6522C55.8863 32.676 55.8524 32.7338 55.8525 32.7822C55.8527 32.8295 55.8868 32.849 55.928 32.8252L57.7595 31.7679C57.8007 31.7441 57.8346 31.6853 57.8345 31.6379C57.8343 31.5895 57.8002 31.5711 57.759 31.5949L55.9276 32.6522Z" fill="#384E85"/>
<path d="M55.9256 32.2484C55.8844 32.2722 55.8505 32.33 55.8506 32.3784C55.8507 32.4257 55.8849 32.4452 55.9261 32.4214L57.7575 31.364C57.7987 31.3402 57.8326 31.2815 57.8325 31.2341C57.8324 31.1857 57.7982 31.1673 57.757 31.1911L55.9256 32.2484Z" fill="#384E85"/>
<path d="M55.9236 31.4414C55.8824 31.4652 55.8485 31.5229 55.8486 31.5713C55.8488 31.6187 55.8829 31.6381 55.9241 31.6143L57.7555 30.557C57.7967 30.5332 57.8307 30.4744 57.8305 30.427C57.8304 30.3787 57.7963 30.3602 57.755 30.384L55.9236 31.4414Z" fill="#384E85"/>
<path d="M55.9246 31.8451C55.8834 31.8689 55.8495 31.9266 55.8496 31.975C55.8497 32.0223 55.8839 32.0418 55.9251 32.018L57.7565 30.9607C57.7977 30.9369 57.8316 30.8781 57.8315 30.8307C57.8314 30.7823 57.7972 30.7639 57.756 30.7877L55.9246 31.8451Z" fill="#384E85"/>
<path d="M55.9295 29.7848C55.8883 29.8086 55.8544 29.8673 55.8545 29.9147C55.8546 29.9631 55.8888 29.9825 55.93 29.9587L57.7614 28.9014C57.8026 28.8776 57.8365 28.8188 57.8364 28.7704C57.8363 28.7231 57.8021 28.7036 57.7609 28.7274L55.9295 29.7848Z" fill="#384E85"/>
<path d="M55.9285 29.3814C55.8873 29.4052 55.8534 29.464 55.8535 29.5124C55.8536 29.5598 55.8878 29.5792 55.929 29.5555L57.7604 28.4981C57.8017 28.4743 57.8356 28.4155 57.8354 28.3682C57.8353 28.3198 57.8012 28.3003 57.7599 28.3241L55.9285 29.3814Z" fill="#384E85"/>
<path d="M55.9276 28.9788C55.8863 29.0026 55.8524 29.0604 55.8525 29.1088C55.8527 29.1561 55.8868 29.1756 55.928 29.1518L57.7595 28.0944C57.8007 28.0706 57.8346 28.0119 57.8345 27.9645C57.8343 27.9161 57.8002 27.8977 57.759 27.9215L55.9276 28.9788Z" fill="#384E85"/>
<path d="M55.9256 28.575C55.8844 28.5988 55.8505 28.6566 55.8506 28.705C55.8507 28.7523 55.8849 28.7718 55.9261 28.748L57.7575 27.6906C57.7987 27.6668 57.8326 27.6081 57.8325 27.5607C57.8324 27.5123 57.7982 27.4939 57.757 27.5177L55.9256 28.575Z" fill="#384E85"/>
<path d="M55.9236 27.768C55.8824 27.7918 55.8485 27.8495 55.8486 27.8979C55.8488 27.9453 55.8829 27.9647 55.9241 27.9409L57.7555 26.8836C57.7967 26.8598 57.8307 26.801 57.8305 26.7536C57.8304 26.7053 57.7963 26.6868 57.755 26.7106L55.9236 27.768Z" fill="#384E85"/>
<path d="M55.9246 28.1716C55.8834 28.1954 55.8495 28.2532 55.8496 28.3016C55.8497 28.3489 55.8839 28.3684 55.9251 28.3446L57.7565 27.2873C57.7977 27.2635 57.8317 27.2047 57.8316 27.1573C57.8314 27.1089 57.7973 27.0905 57.756 27.1143L55.9246 28.1716Z" fill="#384E85"/>
<path d="M50.0595 53.0428C50.0509 53.4855 49.747 54.0238 49.365 54.2408C49.2521 54.3103 49.1306 54.345 49.0265 54.345C48.9483 54.345 48.8702 54.3276 48.8094 54.2842C48.6532 54.1974 48.5576 54.0151 48.5576 53.7807C48.5576 53.338 48.8615 52.8084 49.2521 52.5827C49.4518 52.4612 49.6602 52.4525 49.8164 52.5393C49.9727 52.6348 50.0595 52.8084 50.0595 53.0428Z" fill="#8CA1FD"/>
<path d="M51.0347 54.2615L49.2662 53.2409L49.122 53.4915L50.8893 54.5121C51.0503 54.6056 51.1503 54.7783 51.1503 54.9627V59.8139C51.1503 60.2346 50.9244 60.6268 50.5595 60.8384L42.5516 65.4923C42.188 65.7052 41.7335 65.7052 41.3648 65.4936L18.6928 52.4046C18.5305 52.3111 18.4331 52.1436 18.4331 51.9553C18.4318 51.7671 18.5279 51.5982 18.6915 51.5048L23.1324 48.9233C23.5856 48.661 23.8661 48.1715 23.8661 47.6482V39.8117C23.8661 39.539 23.7194 39.2832 23.483 39.1456L22.5351 38.5989L22.478 38.5651L22.3313 38.8157L23.3389 39.3962C23.4856 39.4819 23.5778 39.6403 23.5778 39.8117V47.6482C23.5778 48.0702 23.3519 48.4624 22.987 48.6727L18.5461 51.2541C18.2942 51.4009 18.1436 51.6632 18.1436 51.9553C18.1436 52.2462 18.2942 52.5085 18.5474 52.6552L41.2193 65.7442C41.4427 65.8727 41.6985 65.9403 41.9569 65.9403C42.2153 65.9403 42.4711 65.8714 42.697 65.7416L50.7049 61.0877C51.1581 60.8241 51.4386 60.3359 51.4386 59.8139V54.9627C51.4386 54.6757 51.2841 54.4069 51.0347 54.2615Z" fill="#8CA1FD"/>
<path d="M23.165 38.3958C23.1563 38.8386 22.8525 39.3768 22.4705 39.5939C22.3576 39.6633 22.2361 39.698 22.1319 39.698C22.0538 39.698 21.9757 39.6806 21.9149 39.6372C21.7586 39.5505 21.6631 39.3681 21.6631 39.1337C21.6631 38.691 21.967 38.1614 22.3576 37.9357C22.5573 37.8142 22.7656 37.8055 22.9219 37.8923C23.0782 37.9878 23.165 38.1614 23.165 38.3958Z" fill="#8CA1FD"/>
<path d="M35.5148 37.2266L34.8838 36.8599L34.8982 65.5139L35.5293 65.8806L35.5148 37.2266Z" fill="#2E4277"/>
<path d="M46.9501 30.6243L46.3191 30.2576L34.8838 36.8597L35.5148 37.2265L46.9501 30.6243Z" fill="#384E85"/>
<path d="M35.5146 37.2266L35.531 65.8791L46.9625 59.2802L46.9462 30.6277L35.5146 37.2266ZM36.8925 37.2284L45.5725 32.2222L45.5806 58.4134L36.9089 63.4196L36.8925 37.2284Z" fill="#1B2A4F"/>
<path d="M35.7979 50.8999L36.3212 51.2007C36.3585 51.2231 36.3908 51.2243 36.4157 51.2107L36.7203 51.0341L36.719 51.279C36.7178 51.4033 36.6743 51.4916 36.6022 51.5339L37.041 51.279C37.1119 51.2368 37.1566 51.1497 37.1566 51.0242L37.1604 48.9521C37.1616 48.6997 36.9838 48.3927 36.765 48.2671L36.2417 47.965L35.8041 48.2186L36.3262 48.5207C36.5462 48.6475 36.7228 48.9546 36.7228 49.2069L36.7203 50.9247L36.2367 50.645L35.7979 50.8999Z" fill="#B7C5FD"/>
<path d="M35.8042 48.2191L35.8033 48.5228L36.3264 48.8248C36.3994 48.867 36.458 48.9693 36.4577 49.0532L36.454 51.1258C36.4537 51.2098 36.3948 51.2433 36.3218 51.2012L35.7987 50.8992L35.7979 51.2038L36.3209 51.5058C36.54 51.6323 36.7183 51.5297 36.7191 51.2789L36.7228 49.2062C36.7235 48.9545 36.5463 48.6476 36.3272 48.5211L35.8042 48.2191Z" fill="#798FFE"/>
<path opacity="0.3" d="M45.5686 32.2203L45.5814 58.4142L36.91 63.421L36.8965 37.2265L45.5686 32.2203Z" fill="#4466FB"/>
<g opacity="0.2">
<path opacity="0.2" d="M45.5697 33.0479L36.8994 41.5908L36.9008 44.2286L45.5701 33.8818L45.5697 33.0479Z" fill="white"/>
<path opacity="0.2" d="M45.5706 36.8323L36.9014 47.1791L36.9028 49.8166L45.5741 41.4212L45.5706 36.8323Z" fill="white"/>
<path opacity="0.2" d="M45.5768 46.1624L36.9062 53.3946L36.9076 56.0773L45.5777 47.7824L45.5768 46.1624Z" fill="white"/>
<path opacity="0.2" d="M36.9092 59.0281L36.9105 61.5512L45.5817 53.3142L45.5792 50.7332L36.9092 59.0281Z" fill="white"/>
</g>
</svg>
