<svg width="60" height="60" viewBox="0 0 60 60" fill="none" xmlns="http://www.w3.org/2000/svg">
<path d="M20.739 9.53075C20.7525 4.78038 23.9135 2.67933 27.9385 4.52094V5.28575C24.2758 3.64915 21.4112 5.57893 21.3989 9.91175L21.1239 9.7573L20.7075 10.7276L20.739 9.53075Z" fill="#6BB5FB"/>
<path d="M22.734 8.79074C22.3274 8.55453 21.7642 8.58781 21.1426 8.94679C19.9071 9.66009 18.9093 11.3883 18.9133 12.808C18.9154 13.5132 19.1642 14.0094 19.5656 14.2427L20.2877 14.6622C19.8863 14.4289 19.6374 13.9329 19.6354 13.2277C19.6314 11.808 20.6291 10.0796 21.8646 9.36633C22.4863 9.00752 23.0494 8.97407 23.4561 9.21029L22.734 8.79074Z" fill="#356AF1"/>
<path d="M24.3833 8.5741C23.843 8.26023 23.0948 8.30445 22.2687 8.78143C20.6271 9.7292 19.3014 12.0254 19.3068 13.9118C19.3094 14.8488 19.6401 15.5082 20.1735 15.8181L21.7999 16.7632C21.2665 16.4533 20.9359 15.7941 20.9332 14.8571C20.9279 12.9708 22.2536 10.6743 23.8952 9.72653C24.7213 9.24978 25.4695 9.20534 26.0098 9.5192L24.3833 8.5741Z" fill="#2E4277"/>
<path d="M23.8946 9.72676C25.5362 8.77899 26.8706 9.53945 26.876 11.4258C26.8813 13.312 25.5556 15.6083 23.914 16.556C22.2724 17.5038 20.938 16.7434 20.9327 14.8572C20.9273 12.9708 22.253 10.6745 23.8946 9.72676Z" fill="#2E4277"/>
<path d="M23.9682 10.7865C25.1004 10.1328 26.0207 10.6573 26.0244 11.9583C26.0281 13.2592 25.1138 14.8429 23.9816 15.4965C22.8494 16.1502 21.9291 15.6257 21.9255 14.3248C21.9218 13.0238 22.8361 11.4402 23.9682 10.7865Z" fill="#1B2A4F"/>
<path d="M23.6909 15.1558C24.8231 14.5021 25.7374 12.9184 25.7337 11.6176C25.7327 11.2514 25.659 10.9467 25.5285 10.7125C25.8359 10.9472 26.0227 11.3742 26.0244 11.9583C26.0281 13.2592 25.1138 14.8429 23.9816 15.4965C23.1681 15.9662 22.4639 15.8276 22.1307 15.2297C22.508 15.5178 23.0671 15.5159 23.6909 15.1558Z" fill="#384E85"/>
<path d="M26.0039 3.77197C24.6824 4.53946 23.8623 6.17039 23.8562 8.48216L23.8252 9.68044L21.3683 11.1078L21.3992 9.91264C21.4054 7.59778 22.2255 5.96684 23.547 5.19935L26.0039 3.77197Z" fill="#9AADFD"/>
<path d="M21.7959 17.0941C21.9253 20.0407 22.3371 22.5945 22.3371 22.5945C22.5383 25.3671 21.7941 27.4249 22.5756 28.18C22.62 30.4391 23.3233 33.4175 23.3233 33.4175L30.9257 33.8535L35.6163 25.2414C34.8978 22.8625 35.5599 22.8223 35.7356 21.9636C35.7707 21.7918 35.7956 21.6993 35.7956 21.6993C35.25 24.2871 37.0643 13.1041 34.841 9.46589C32.9281 6.33585 21.9099 6.53544 21.3433 10.2905C20.8088 13.2195 20.8505 14.581 21.7959 17.0941Z" fill="#D9DDF6"/>
<path d="M21.399 9.91156C21.4043 8.05821 21.9314 6.64453 22.8196 5.76159C24.008 4.58036 24.8823 3.47163 29.2964 3.04244C44.7534 1.53958 38.3008 20.5677 38.3008 20.5677L34.8402 20.7987C35.1641 12.1013 32.262 11.3319 30.8362 11.4698C29.777 11.5724 28.7114 11.6402 27.6586 11.4855C25.3824 11.1508 24.2361 10.3297 23.1157 9.18974C22.8979 8.96823 22.5281 9.02708 22.3752 9.2974C21.0079 11.7165 21.7964 17.0939 21.7964 17.0939C19.9844 13.9782 21.399 9.91156 21.399 9.91156Z" fill="#384E85"/>
<path d="M37.3423 18.142C36.802 17.8281 36.0538 15.0612 35.2277 15.5381C33.5861 16.4859 32.2604 18.7822 32.2657 20.6685C32.2684 21.6055 32.599 22.2649 33.1324 22.5748L34.7589 23.5199C34.2255 23.21 33.8949 22.5509 33.8922 21.6139C33.8868 19.7275 35.2126 17.431 36.8542 16.4833C37.6802 16.0065 38.4285 15.9621 38.9688 16.2759L37.3423 18.142Z" fill="#384E85"/>
<path d="M36.8536 16.4834C38.4952 15.5356 39.8296 16.296 39.8349 18.1824C39.8403 20.0686 38.5146 22.3649 36.873 23.3126C35.2314 24.2604 33.897 23.4999 33.8916 21.6138C33.8863 19.7274 35.212 17.4311 36.8536 16.4834Z" fill="#1B2A4F"/>
<path d="M38.7188 17.3049C38.3122 17.0687 37.7491 17.102 37.1274 17.4609C35.8919 18.1743 34.8941 19.9024 34.8982 21.3221C34.9002 22.0273 35.149 22.5236 35.5504 22.7568L36.4742 23.2936C36.0728 23.0603 35.8239 22.5643 35.8219 21.8591C35.8179 20.4394 36.8156 18.711 38.0511 17.9977C38.6728 17.6389 39.236 17.6055 39.6426 17.8417L38.7188 17.3049Z" fill="#356AF1"/>
<path d="M38.0511 17.9977C39.2866 17.2844 40.2909 17.8567 40.2949 19.2764C40.2989 20.696 39.3012 22.4242 38.0657 23.1375C36.8302 23.8508 35.826 23.2785 35.8219 21.8589C35.8179 20.4392 36.8157 18.711 38.0511 17.9977Z" fill="#B7C5FD"/>
<path d="M39.2128 17.3485L39.1819 20.056L36.725 21.4834L36.7559 18.7789C36.7714 13.7036 33.1908 7.50171 28.7746 4.95162C26.5526 3.6704 24.5348 3.5528 23.0772 4.39766L25.5372 2.97028C26.9917 2.12233 29.0095 2.23993 31.2315 3.52425C35.6477 6.07431 39.2283 12.2762 39.2128 17.3485Z" fill="#B7C5FD"/>
<path d="M28.7736 4.95201C33.1897 7.50163 36.7702 13.7032 36.7558 18.7777L36.7518 18.9275H36.0839L36.0978 18.3978C36.111 13.7411 32.824 8.04785 28.7715 5.70808C25.5772 3.86381 22.8539 4.65398 21.8341 7.34832H21.0182C21.9339 3.92771 25.0638 2.81011 28.7736 4.95201Z" fill="#356AF1"/>
<path d="M22.3379 22.5942C22.3379 22.5942 22.0113 32.2831 25.8255 33.1889C30.4569 34.2886 33.09 27.8721 37.0037 27.0978C37.0037 27.0978 39.0238 28.2874 41.2471 29.9376C44.7579 32.5435 46.8455 36.647 46.8455 41.0193L47.0654 52.9002C47.0654 54.0503 46.4107 55.0914 45.3738 55.5887C42.2383 57.0926 35.5218 60.2494 22.3629 52.9002C22.3629 52.9002 22.3499 52.8922 22.3251 52.8766C17.3751 49.786 14.5481 47.2039 13.8639 40.1407C13.8639 40.1407 11.5919 17.174 22.3379 22.5942Z" fill="#2E4277"/>
<path d="M21.4301 24.0823C21.5559 24.1233 21.6791 24.1577 21.8094 24.2097C22.019 26.6636 23.2222 29.8287 26.234 31.5412C26.234 31.5412 29.685 33.5431 33.8432 29.2123C34.8268 29.1968 35.8766 27.3208 37.0029 27.0979C37.0029 27.0979 26.8538 47.6748 22.3621 52.9002C22.3621 52.9002 22.0127 52.6551 21.4829 52.2507L21.5415 52.1376C21.5415 52.1376 17.6339 41.5652 21.4301 24.0823Z" fill="#4466FB"/>
<path d="M22.645 29.5171L24.6803 34.883L20.6853 46.8698L21.4827 52.2505L22.3618 52.9001L25.381 48.9242L26.2437 35.7647L29.2627 33.2492L22.645 29.5171Z" fill="#2B3C67"/>
<path d="M22.3365 22.5942C22.3365 22.5942 22.1422 27.3801 26.2334 31.5411C26.2334 31.5411 23.267 33.6788 22.1421 33.6788C22.1421 33.6788 20.0596 28.9527 20.3775 26.6644C20.6955 24.376 21.9454 24.6044 22.3365 22.5942Z" fill="#4A7FFF"/>
<path d="M37.0029 27.0979C37.0029 27.0979 36.3597 26.5423 35.6162 25.2412C35.6162 25.2412 31.7298 31.8604 26.234 31.5411C26.234 31.5411 26.9289 34.87 28.6737 36.4487C28.6737 36.4487 34.6155 33.3281 37.0029 27.0979Z" fill="#4A7FFF"/>
<path d="M36.6688 38.4912H32.9877L33.9634 42.0206L22.3628 52.9002L37.0036 27.0979C37.0036 27.0979 39.9223 33.3687 36.6688 38.4912Z" fill="#384E85"/>
<path d="M17.3577 30.0897C17.3577 30.0897 18.4444 26.9629 22.3379 22.5942C22.3379 22.5942 20.2745 40.8851 21.5423 52.1375C21.5423 52.1375 17.034 38.9724 17.034 34.855L19.3535 33.1406L17.3577 30.0897Z" fill="#384E85"/>
<path d="M25.9963 21.4655C29.1222 23.5196 34.2887 22.0807 35.4806 20.8838C35.6542 21.2928 35.4333 21.5429 35.6172 21.9496C30.9983 25.0028 25.5424 22.5938 25.7346 22.4083C25.847 22.0084 25.886 21.8661 25.9963 21.4655Z" fill="#356AF1"/>
<path d="M22.8694 21.1195C23.0536 20.5663 23.6512 20.2671 24.2042 20.4513L26.5601 21.236C27.1131 21.4202 27.412 22.0179 27.2279 22.5711C27.0437 23.1243 26.4461 23.4234 25.8931 23.2393L23.5372 22.4546C22.9843 22.2704 22.6852 21.6726 22.8694 21.1195Z" fill="#384E85"/>
</svg>
